<?xml version="1.0" encoding="UTF-8"?>
<!DOCTYPE svg PUBLIC "-//W3C//DTD SVG 1.1//EN" "http://www.w3.org/Graphics/SVG/1.1/DTD/svg11.dtd">
<!-- Creator: CorelDRAW -->
<svg xmlns="http://www.w3.org/2000/svg" xml:space="preserve" width="3.6in" height="3.6in" version="1.1" style="shape-rendering:geometricPrecision; text-rendering:geometricPrecision; image-rendering:optimizeQuality; fill-rule:evenodd; clip-rule:evenodd"
viewBox="0 0 3600 3600"
 xmlns:xlink="http://www.w3.org/1999/xlink"
 xmlns:xodm="http://www.corel.com/coreldraw/odm/2003">
 <defs>
  <style type="text/css">
   <![CDATA[
    .fil2 {fill:#FEFEFE}
    .fil0 {fill:#727376;fill-rule:nonzero}
    .fil1 {fill:#ED3237;fill-rule:nonzero}
   ]]>
  </style>
 </defs>
 <g id="Layer_x0020_1">
  <metadata id="CorelCorpID_0Corel-Layer"/>
  <path class="fil0" d="M2087.2 2661.52c-166.84,-335.02 -261.85,-721.38 -293.56,-1217.93 -0.67,-10.48 -16.48,-10.07 -17.27,-1.65 -43.55,456.7 -117.01,850.02 -293.49,1219.58 -5.26,11.01 -2.91,21.67 8.27,21.66l587.72 0c8.33,0.28 14.11,-10.04 8.33,-21.66zm309.61 -572.12l-403.21 0c0,105.34 180.52,190.74 403.21,190.74 222.69,0 403.22,-85.4 403.22,-190.74l-403.22 0zm371.09 -85.78c7.88,10.83 5.49,26.02 -5.33,33.9 -10.83,7.88 -26.02,5.5 -33.9,-5.33l-332.74 -457.23 -329.38 470.25c-7.67,10.99 -22.82,13.67 -33.81,6 -10.99,-7.67 -13.67,-22.82 -6,-33.81l348.89 -498.11c1.51,-2.14 3.39,-4.09 5.62,-5.71 10.83,-7.88 26.02,-5.49 33.9,5.33l352.75 484.71zm-363.14 -692.17c26.4,5.25 43.54,30.94 38.28,57.34 -5.25,26.4 -30.94,43.54 -57.33,38.28 -122.99,-24.5 -238.43,-66.59 -345.36,-128.28 -90.91,-52.43 -175.18,-118.81 -252.17,-200.3 -78.2,97.25 -167.48,184.04 -266.02,250.91 -103.31,70.11 -216.77,118.3 -338.35,133.85 -26.61,3.37 -50.92,-15.49 -54.29,-42.1 -3.36,-26.61 15.49,-50.92 42.1,-54.28 105.47,-13.49 204.85,-55.94 296.06,-117.84 103.97,-70.56 197.52,-166.52 277.78,-274.13 2.3,-3.31 5.08,-6.4 8.29,-9.15 20.4,-17.46 51.11,-15.07 68.57,5.33 80.28,93.65 169.37,167.57 266.4,223.52 96.9,55.9 202.57,94.25 316.04,116.85zm-841.65 754.11c7.88,10.83 5.5,26.02 -5.33,33.9 -10.83,7.88 -26.02,5.5 -33.9,-5.33l-347.15 -477.02 -343.59 490.57c-7.67,10.99 -22.81,13.67 -33.8,6 -10.99,-7.67 -13.67,-22.81 -6,-33.8l363.11 -518.43c1.51,-2.14 3.39,-4.09 5.62,-5.71 10.83,-7.88 26.02,-5.5 33.9,5.33l367.15 504.5zm-385.39 99.08l-403.22 0c0,105.34 180.52,190.74 403.22,190.74 222.69,0 403.21,-85.4 403.21,-190.74l-403.21 0z"/>
  <g>
   <path class="fil1" d="M1800 1391.24c158.89,0 302.76,64.41 406.89,168.55 104.13,104.14 168.55,247.99 168.55,406.89 0,158.89 -64.42,302.76 -168.55,406.89 -104.14,104.13 -248,168.54 -406.89,168.54 -158.89,0 -302.75,-64.42 -406.89,-168.54 -104.13,-104.13 -168.54,-248 -168.54,-406.89 0,-158.89 64.41,-302.76 168.54,-406.89 104.13,-104.13 248,-168.55 406.89,-168.55zm242.86 226.36c-68.85,-47.98 -152.57,-76.13 -242.86,-76.13 -117.43,0 -223.73,47.59 -300.67,124.53 -76.94,76.94 -124.53,183.25 -124.53,300.67 0,90.29 28.14,174.01 76.12,242.86l591.94 -591.93zm182.35 349.07c0,-90.29 -28.15,-174.01 -76.13,-242.86l-591.94 591.93c68.85,47.98 152.57,76.13 242.87,76.13 117.43,0 223.74,-47.6 300.68,-124.53 76.93,-76.94 124.53,-183.25 124.53,-300.68z"/>
   <path id="_1" class="fil2" d="M1800 1324.57c86.54,0 169.42,17.35 245.31,48.79 79,32.73 149.79,80.37 208.71,139.29 58.92,58.93 106.56,129.71 139.29,208.72 31.44,75.89 48.79,158.76 48.79,245.3 0,86.54 -17.35,169.42 -48.79,245.31 -32.73,79.01 -80.37,149.8 -139.29,208.72 -58.93,58.92 -129.72,106.56 -208.72,139.29 -75.89,31.43 -158.76,48.79 -245.3,48.79 -86.54,0 -169.42,-17.35 -245.3,-48.79 -79,-32.72 -149.8,-80.37 -208.72,-139.29 -58.92,-58.92 -106.56,-129.71 -139.29,-208.72 -31.44,-75.89 -48.79,-158.77 -48.79,-245.31 0,-86.54 17.35,-169.42 48.79,-245.31 32.73,-79 80.37,-149.79 139.29,-208.71 58.92,-58.92 129.71,-106.56 208.71,-139.29 75.89,-31.44 158.77,-48.79 245.31,-48.79zm0 66.67c158.89,0 302.76,64.41 406.89,168.55 104.13,104.14 168.55,247.99 168.55,406.89 0,158.89 -64.42,302.76 -168.55,406.89 -104.14,104.13 -248,168.54 -406.89,168.54 -158.89,0 -302.75,-64.42 -406.89,-168.54 -104.13,-104.13 -168.54,-248 -168.54,-406.89 0,-158.89 64.41,-302.76 168.54,-406.89 104.13,-104.13 248,-168.55 406.89,-168.55zm242.86 226.36c-68.85,-47.98 -152.57,-76.13 -242.86,-76.13 -117.43,0 -223.73,47.59 -300.67,124.53 -76.94,76.94 -124.53,183.25 -124.53,300.67 0,90.29 28.14,174.01 76.12,242.86l591.94 -591.93zm182.35 349.07c0,-90.29 -28.15,-174.01 -76.13,-242.86l-591.94 591.93c68.85,47.98 152.57,76.13 242.87,76.13 117.43,0 223.74,-47.6 300.68,-124.53 76.93,-76.94 124.53,-183.25 124.53,-300.68zm-292.41 -333.28c-8.28,-3.31 -16.7,-6.31 -25.25,-8.99 -33.72,-10.57 -69.84,-16.27 -107.55,-16.27 -48.99,0 -95.37,9.6 -137.35,26.99 -43.44,17.99 -82.85,44.68 -116.19,78.01 -33.33,33.33 -60.02,72.75 -78.01,116.19 -17.39,41.98 -26.99,88.36 -26.99,137.35 0,37.71 5.7,73.83 16.27,107.55 2.68,8.55 5.68,16.96 8.98,25.24l466.08 -466.07zm225.75 333.28c0,-37.7 -5.7,-73.83 -16.27,-107.55 -2.68,-8.55 -5.68,-16.97 -8.99,-25.25l-466.09 466.08c8.28,3.31 16.7,6.31 25.26,8.99 33.72,10.57 69.84,16.27 107.55,16.27 48.98,0 95.37,-9.6 137.35,-26.99 43.44,-17.99 82.86,-44.69 116.19,-78.01 33.33,-33.33 60.02,-72.75 78.01,-116.19 17.39,-41.98 26.99,-88.37 26.99,-137.35z"/>
  </g>
 </g>
</svg>
