<?xml version="1.0" encoding="UTF-8"?>
<!DOCTYPE svg PUBLIC "-//W3C//DTD SVG 1.1//EN" "http://www.w3.org/Graphics/SVG/1.1/DTD/svg11.dtd">
<!-- Creator: CorelDRAW -->
<svg xmlns="http://www.w3.org/2000/svg" xml:space="preserve" width="3.6in" height="1.20175in" version="1.1" style="shape-rendering:geometricPrecision; text-rendering:geometricPrecision; image-rendering:optimizeQuality; fill-rule:evenodd; clip-rule:evenodd"
viewBox="0 0 3600 1201.75"
 xmlns:xlink="http://www.w3.org/1999/xlink"
 xmlns:xodm="http://www.corel.com/coreldraw/odm/2003">
 <defs>
  <style type="text/css">
   <![CDATA[
    .str0 {stroke:#512BD4;stroke-width:33.33;stroke-linecap:round;stroke-linejoin:round;stroke-miterlimit:2.61313;stroke-opacity:0.050980}
    .str1 {stroke:#512BD4;stroke-width:16.67;stroke-linecap:round;stroke-linejoin:round;stroke-miterlimit:2.61313;stroke-opacity:0.050980}
    .fil4 {fill:none}
    .fil3 {fill:none}
    .fil6 {fill:#5C5CB8}
    .fil5 {fill:#5C5CB8;fill-rule:nonzero}
    .fil0 {fill:#FEFEFE;fill-opacity:0.050980}
    .fil1 {fill:#512BD4;fill-opacity:0.050980}
    .fil2 {fill:#512BD4;fill-rule:nonzero;fill-opacity:0.050980}
   ]]>
  </style>
   <clipPath id="id0">
    <path d="M3600 0l0 1201.75 -3600 0 0 -1201.75 3600 0z"/>
   </clipPath>
 </defs>
 <g id="Layer_x0020_1">
  <metadata id="CorelCorpID_0Corel-Layer"/>
  <g>
  </g>
  <g style="clip-path:url(#id0)">
   <g id="_2597496405696">
    <g>
     <polygon class="fil0" points="-0,-784.38 3600,-784.38 3600,2400.08 -0,2400.08 "/>
     <path class="fil1" d="M138.52 -572.85l55.99 0c0,14.63 -25.07,26.49 -55.99,26.49 -30.92,0 -55.99,-11.86 -55.99,-26.49l55.99 0z"/>
     <path class="fil1" d="M138.52 -172.28l55.99 0c0,14.62 -25.07,26.48 -55.99,26.48 -30.92,0 -55.99,-11.86 -55.99,-26.48l55.99 0z"/>
     <path class="fil1" d="M138.52 228.27l55.99 0c0,14.63 -25.07,26.49 -55.99,26.49 -30.92,0 -55.99,-11.86 -55.99,-26.49l55.99 0z"/>
     <path class="fil1" d="M138.52 628.84l55.99 0c0,14.63 -25.07,26.48 -55.99,26.48 -30.92,0 -55.99,-11.85 -55.99,-26.48l55.99 0z"/>
     <path class="fil1" d="M138.52 1029.4l55.99 0c0,14.63 -25.07,26.48 -55.99,26.48 -30.92,0 -55.99,-11.86 -55.99,-26.48l55.99 0z"/>
     <path class="fil1" d="M138.52 1429.96l55.99 0c0,14.63 -25.07,26.48 -55.99,26.48 -30.92,0 -55.99,-11.85 -55.99,-26.48l55.99 0z"/>
     <path class="fil1" d="M138.52 1830.52l55.99 0c0,14.62 -25.07,26.48 -55.99,26.48 -30.92,0 -55.99,-11.86 -55.99,-26.48l55.99 0z"/>
     <path class="fil1" d="M138.52 2231.08l55.99 0c0,14.63 -25.07,26.49 -55.99,26.49 -30.92,0 -55.99,-11.86 -55.99,-26.49l55.99 0z"/>
     <path class="fil1" d="M1038.77 -572.85l55.99 0c0,14.63 -25.07,26.49 -55.99,26.49 -30.92,0 -55.99,-11.86 -55.99,-26.49l55.99 0z"/>
     <path class="fil1" d="M1038.77 -172.28l55.99 0c0,14.62 -25.07,26.48 -55.99,26.48 -30.92,0 -55.99,-11.86 -55.99,-26.48l55.99 0z"/>
     <path class="fil1" d="M1038.77 228.27l55.99 0c0,14.63 -25.07,26.49 -55.99,26.49 -30.92,0 -55.99,-11.86 -55.99,-26.49l55.99 0z"/>
     <path class="fil1" d="M1038.77 628.84l55.99 0c0,14.63 -25.07,26.48 -55.99,26.48 -30.92,0 -55.99,-11.85 -55.99,-26.48l55.99 0z"/>
     <path class="fil1" d="M1038.77 1029.4l55.99 0c0,14.63 -25.07,26.48 -55.99,26.48 -30.92,0 -55.99,-11.86 -55.99,-26.48l55.99 0z"/>
     <path class="fil1" d="M1038.77 1429.96l55.99 0c0,14.63 -25.07,26.48 -55.99,26.48 -30.92,0 -55.99,-11.85 -55.99,-26.48l55.99 0z"/>
     <path class="fil1" d="M1038.77 1830.52l55.99 0c0,14.62 -25.07,26.48 -55.99,26.48 -30.92,0 -55.99,-11.86 -55.99,-26.48l55.99 0z"/>
     <path class="fil1" d="M1038.77 2231.08l55.99 0c0,14.63 -25.07,26.49 -55.99,26.49 -30.92,0 -55.99,-11.86 -55.99,-26.49l55.99 0z"/>
     <path class="fil1" d="M1939.01 -572.85l55.99 0c0,14.63 -25.07,26.49 -55.99,26.49 -30.92,0 -55.99,-11.86 -55.99,-26.49l55.99 0z"/>
     <path class="fil1" d="M1939.01 -172.28l55.99 0c0,14.62 -25.07,26.48 -55.99,26.48 -30.92,0 -55.99,-11.86 -55.99,-26.48l55.99 0z"/>
     <path class="fil1" d="M1939.01 228.27l55.99 0c0,14.63 -25.07,26.49 -55.99,26.49 -30.92,0 -55.99,-11.86 -55.99,-26.49l55.99 0z"/>
     <path class="fil1" d="M1939.01 628.84l55.99 0c0,14.63 -25.07,26.48 -55.99,26.48 -30.92,0 -55.99,-11.85 -55.99,-26.48l55.99 0z"/>
     <path class="fil1" d="M1939.01 1029.4l55.99 0c0,14.63 -25.07,26.48 -55.99,26.48 -30.92,0 -55.99,-11.86 -55.99,-26.48l55.99 0z"/>
     <path class="fil1" d="M1939.01 1429.96l55.99 0c0,14.63 -25.07,26.48 -55.99,26.48 -30.92,0 -55.99,-11.85 -55.99,-26.48l55.99 0z"/>
     <path class="fil1" d="M1939.01 1830.52l55.99 0c0,14.62 -25.07,26.48 -55.99,26.48 -30.92,0 -55.99,-11.86 -55.99,-26.48l55.99 0z"/>
     <path class="fil1" d="M1939.01 2231.08l55.99 0c0,14.63 -25.07,26.49 -55.99,26.49 -30.92,0 -55.99,-11.86 -55.99,-26.49l55.99 0z"/>
     <path class="fil1" d="M2839.26 -572.85l55.99 0c0,14.63 -25.07,26.49 -55.99,26.49 -30.92,0 -55.99,-11.86 -55.99,-26.49l55.99 0z"/>
     <path class="fil1" d="M2839.26 -172.28l55.99 0c0,14.62 -25.07,26.48 -55.99,26.48 -30.92,0 -55.99,-11.86 -55.99,-26.48l55.99 0z"/>
     <path class="fil1" d="M2839.26 228.27l55.99 0c0,14.63 -25.07,26.49 -55.99,26.49 -30.92,0 -55.99,-11.86 -55.99,-26.49l55.99 0z"/>
     <path class="fil1" d="M2839.26 628.84l55.99 0c0,14.63 -25.07,26.48 -55.99,26.48 -30.92,0 -55.99,-11.85 -55.99,-26.48l55.99 0z"/>
     <path class="fil1" d="M2839.26 1029.4l55.99 0c0,14.63 -25.07,26.48 -55.99,26.48 -30.92,0 -55.99,-11.86 -55.99,-26.48l55.99 0z"/>
     <path class="fil1" d="M2839.26 1429.96l55.99 0c0,14.63 -25.07,26.48 -55.99,26.48 -30.92,0 -55.99,-11.85 -55.99,-26.48l55.99 0z"/>
     <path class="fil1" d="M2839.26 1830.52l55.99 0c0,14.62 -25.07,26.48 -55.99,26.48 -30.92,0 -55.99,-11.86 -55.99,-26.48l55.99 0z"/>
     <path class="fil1" d="M2839.26 2231.08l55.99 0c0,14.63 -25.07,26.49 -55.99,26.49 -30.92,0 -55.99,-11.86 -55.99,-26.49l55.99 0z"/>
     <path class="fil1" d="M307.8 -562.4l55.99 0c0,14.63 -25.07,26.48 -55.99,26.48 -30.92,0 -55.99,-11.85 -55.99,-26.48l55.99 0z"/>
     <path class="fil1" d="M307.8 -161.83l55.99 0c0,14.62 -25.07,26.48 -55.99,26.48 -30.92,0 -55.99,-11.86 -55.99,-26.48l55.99 0z"/>
     <path class="fil1" d="M307.8 238.72l55.99 0c0,14.63 -25.07,26.49 -55.99,26.49 -30.92,0 -55.99,-11.86 -55.99,-26.49l55.99 0z"/>
     <path class="fil1" d="M307.8 639.29l55.99 0c0,14.63 -25.07,26.48 -55.99,26.48 -30.92,0 -55.99,-11.85 -55.99,-26.48l55.99 0z"/>
     <path class="fil1" d="M307.8 1039.85l55.99 0c0,14.63 -25.07,26.48 -55.99,26.48 -30.92,0 -55.99,-11.86 -55.99,-26.48l55.99 0z"/>
     <path class="fil1" d="M307.8 1440.41l55.99 0c0,14.63 -25.07,26.49 -55.99,26.49 -30.92,0 -55.99,-11.86 -55.99,-26.49l55.99 0z"/>
     <path class="fil1" d="M307.8 1840.97l55.99 0c0,14.63 -25.07,26.48 -55.99,26.48 -30.92,0 -55.99,-11.86 -55.99,-26.48l55.99 0z"/>
     <path class="fil1" d="M307.8 2241.53l55.99 0c0,14.62 -25.07,26.49 -55.99,26.49 -30.92,0 -55.99,-11.87 -55.99,-26.49l55.99 0z"/>
     <path class="fil1" d="M1208.04 -562.4l55.99 0c0,14.63 -25.07,26.48 -55.99,26.48 -30.92,0 -55.99,-11.85 -55.99,-26.48l55.99 0z"/>
     <path class="fil1" d="M1208.04 -161.83l55.99 0c0,14.62 -25.07,26.48 -55.99,26.48 -30.92,0 -55.99,-11.86 -55.99,-26.48l55.99 0z"/>
     <path class="fil1" d="M1208.04 238.72l55.99 0c0,14.63 -25.07,26.49 -55.99,26.49 -30.92,0 -55.99,-11.86 -55.99,-26.49l55.99 0z"/>
     <path class="fil1" d="M1208.04 639.29l55.99 0c0,14.63 -25.07,26.48 -55.99,26.48 -30.92,0 -55.99,-11.85 -55.99,-26.48l55.99 0z"/>
     <path class="fil1" d="M1208.04 1039.85l55.99 0c0,14.63 -25.07,26.48 -55.99,26.48 -30.92,0 -55.99,-11.86 -55.99,-26.48l55.99 0z"/>
     <path class="fil1" d="M1208.04 1440.41l55.99 0c0,14.63 -25.07,26.49 -55.99,26.49 -30.92,0 -55.99,-11.86 -55.99,-26.49l55.99 0z"/>
     <path class="fil1" d="M1208.04 1840.97l55.99 0c0,14.63 -25.07,26.48 -55.99,26.48 -30.92,0 -55.99,-11.86 -55.99,-26.48l55.99 0z"/>
     <path class="fil1" d="M1208.04 2241.53l55.99 0c0,14.62 -25.07,26.49 -55.99,26.49 -30.92,0 -55.99,-11.87 -55.99,-26.49l55.99 0z"/>
     <path class="fil1" d="M2108.29 -562.4l55.99 0c0,14.63 -25.07,26.48 -55.99,26.48 -30.92,0 -55.99,-11.85 -55.99,-26.48l55.99 0z"/>
     <path class="fil1" d="M2108.29 -161.83l55.99 0c0,14.62 -25.07,26.48 -55.99,26.48 -30.92,0 -55.99,-11.86 -55.99,-26.48l55.99 0z"/>
     <path class="fil1" d="M2108.29 238.72l55.99 0c0,14.63 -25.07,26.49 -55.99,26.49 -30.92,0 -55.99,-11.86 -55.99,-26.49l55.99 0z"/>
     <path class="fil1" d="M2108.29 639.29l55.99 0c0,14.63 -25.07,26.48 -55.99,26.48 -30.92,0 -55.99,-11.85 -55.99,-26.48l55.99 0z"/>
     <path class="fil1" d="M2108.29 1039.85l55.99 0c0,14.63 -25.07,26.48 -55.99,26.48 -30.92,0 -55.99,-11.86 -55.99,-26.48l55.99 0z"/>
     <path class="fil1" d="M2108.29 1440.41l55.99 0c0,14.63 -25.07,26.49 -55.99,26.49 -30.92,0 -55.99,-11.86 -55.99,-26.49l55.99 0z"/>
     <path class="fil1" d="M2108.29 1840.97l55.99 0c0,14.63 -25.07,26.48 -55.99,26.48 -30.92,0 -55.99,-11.86 -55.99,-26.48l55.99 0z"/>
     <path class="fil1" d="M2108.29 2241.53l55.99 0c0,14.62 -25.07,26.49 -55.99,26.49 -30.92,0 -55.99,-11.87 -55.99,-26.49l55.99 0z"/>
     <path class="fil1" d="M3008.54 -562.4l55.98 0c0,14.63 -25.06,26.48 -55.98,26.48 -30.93,0 -55.99,-11.85 -55.99,-26.48l55.99 0z"/>
     <path class="fil1" d="M3008.54 -161.83l55.98 0c0,14.62 -25.06,26.48 -55.98,26.48 -30.93,0 -55.99,-11.86 -55.99,-26.48l55.99 0z"/>
     <path class="fil1" d="M3008.54 238.72l55.98 0c0,14.63 -25.06,26.49 -55.98,26.49 -30.93,0 -55.99,-11.86 -55.99,-26.49l55.99 0z"/>
     <path class="fil1" d="M3008.54 639.29l55.98 0c0,14.63 -25.06,26.48 -55.98,26.48 -30.93,0 -55.99,-11.85 -55.99,-26.48l55.99 0z"/>
     <path class="fil1" d="M3008.54 1039.85l55.98 0c0,14.63 -25.06,26.48 -55.98,26.48 -30.93,0 -55.99,-11.86 -55.99,-26.48l55.99 0z"/>
     <path class="fil1" d="M3008.54 1440.41l55.98 0c0,14.63 -25.06,26.49 -55.98,26.49 -30.93,0 -55.99,-11.86 -55.99,-26.49l55.99 0z"/>
     <path class="fil1" d="M3008.54 1840.97l55.98 0c0,14.63 -25.06,26.48 -55.98,26.48 -30.93,0 -55.99,-11.86 -55.99,-26.48l55.99 0z"/>
     <path class="fil1" d="M3008.54 2241.53l55.98 0c0,14.62 -25.06,26.49 -55.98,26.49 -30.93,0 -55.99,-11.87 -55.99,-26.49l55.99 0z"/>
     <path class="fil2" d="M181.52 -479.87c23.17,-46.52 36.36,-100.16 40.76,-169.11 0.09,-1.45 2.29,-1.4 2.4,-0.23 6.05,63.41 16.25,118.02 40.75,169.34 0.73,1.53 0.41,3.01 -1.15,3.01l-81.61 0c-1.15,0.04 -1.96,-1.39 -1.15,-3.01z"/>
     <path class="fil2" d="M181.52 -79.3c23.17,-46.52 36.36,-100.17 40.76,-169.11 0.09,-1.45 2.29,-1.4 2.4,-0.23 6.05,63.41 16.25,118.03 40.75,169.34 0.73,1.53 0.41,3 -1.15,3l-81.61 0c-1.15,0.04 -1.96,-1.39 -1.15,-3z"/>
     <path class="fil2" d="M181.52 321.26c23.17,-46.52 36.36,-100.17 40.76,-169.11 0.09,-1.46 2.29,-1.4 2.4,-0.23 6.05,63.42 16.25,118.03 40.75,169.34 0.73,1.54 0.41,3.01 -1.15,3.01l-81.61 0c-1.15,0.04 -1.96,-1.39 -1.15,-3.01z"/>
     <path class="fil2" d="M181.52 721.82c23.17,-46.51 36.36,-100.17 40.76,-169.11 0.09,-1.45 2.29,-1.4 2.4,-0.23 6.05,63.41 16.25,118.03 40.75,169.34 0.73,1.53 0.41,3 -1.15,3l-81.61 0c-1.15,0.04 -1.96,-1.39 -1.15,-3z"/>
     <path class="fil2" d="M181.52 1122.38c23.17,-46.52 36.36,-100.17 40.76,-169.11 0.09,-1.46 2.29,-1.4 2.4,-0.23 6.05,63.41 16.25,118.02 40.75,169.34 0.73,1.53 0.41,3.01 -1.15,3.01l-81.61 0c-1.15,0.04 -1.96,-1.39 -1.15,-3.01z"/>
     <path class="fil2" d="M181.52 1522.94c23.17,-46.51 36.36,-100.17 40.76,-169.11 0.09,-1.45 2.29,-1.4 2.4,-0.22 6.05,63.41 16.25,118.03 40.75,169.34 0.73,1.53 0.41,3.01 -1.15,3.01l-81.61 0c-1.15,0.04 -1.96,-1.39 -1.15,-3.01z"/>
     <path class="fil2" d="M181.52 1923.51c23.17,-46.52 36.36,-100.17 40.76,-169.11 0.09,-1.46 2.29,-1.4 2.4,-0.24 6.05,63.41 16.25,118.03 40.75,169.35 0.73,1.53 0.41,3 -1.15,3l-81.61 0c-1.15,0.04 -1.96,-1.39 -1.15,-3z"/>
     <path class="fil2" d="M181.52 2324.06c23.17,-46.52 36.36,-100.16 40.76,-169.11 0.09,-1.45 2.29,-1.39 2.4,-0.22 6.05,63.41 16.25,118.03 40.75,169.34 0.73,1.53 0.41,3.01 -1.15,3.01l-81.61 0c-1.15,0.04 -1.96,-1.39 -1.15,-3.01z"/>
     <path class="fil2" d="M1081.76 -479.87c23.17,-46.52 36.36,-100.16 40.76,-169.11 0.09,-1.45 2.29,-1.4 2.4,-0.23 6.05,63.41 16.25,118.02 40.76,169.34 0.73,1.53 0.4,3.01 -1.15,3.01l-81.61 0c-1.16,0.04 -1.96,-1.39 -1.16,-3.01z"/>
     <path class="fil2" d="M1081.76 -79.3c23.17,-46.52 36.36,-100.17 40.76,-169.11 0.09,-1.45 2.29,-1.4 2.4,-0.23 6.05,63.41 16.25,118.03 40.76,169.34 0.73,1.53 0.4,3 -1.15,3l-81.61 0c-1.16,0.04 -1.96,-1.39 -1.16,-3z"/>
     <path class="fil2" d="M1081.76 321.26c23.17,-46.52 36.36,-100.17 40.76,-169.11 0.09,-1.46 2.29,-1.4 2.4,-0.23 6.05,63.42 16.25,118.03 40.76,169.34 0.73,1.54 0.4,3.01 -1.15,3.01l-81.61 0c-1.16,0.04 -1.96,-1.39 -1.16,-3.01z"/>
     <path class="fil2" d="M1081.76 721.82c23.17,-46.51 36.36,-100.17 40.76,-169.11 0.09,-1.45 2.29,-1.4 2.4,-0.23 6.05,63.41 16.25,118.03 40.76,169.34 0.73,1.53 0.4,3 -1.15,3l-81.61 0c-1.16,0.04 -1.96,-1.39 -1.16,-3z"/>
     <path class="fil2" d="M1081.76 1122.38c23.17,-46.52 36.36,-100.17 40.76,-169.11 0.09,-1.46 2.29,-1.4 2.4,-0.23 6.05,63.41 16.25,118.02 40.76,169.34 0.73,1.53 0.4,3.01 -1.15,3.01l-81.61 0c-1.16,0.04 -1.96,-1.39 -1.16,-3.01z"/>
     <path class="fil2" d="M1081.76 1522.94c23.17,-46.51 36.36,-100.17 40.76,-169.11 0.09,-1.45 2.29,-1.4 2.4,-0.22 6.05,63.41 16.25,118.03 40.76,169.34 0.73,1.53 0.4,3.01 -1.15,3.01l-81.61 0c-1.16,0.04 -1.96,-1.39 -1.16,-3.01z"/>
     <path class="fil2" d="M1081.76 1923.51c23.17,-46.52 36.36,-100.17 40.76,-169.11 0.09,-1.46 2.29,-1.4 2.4,-0.24 6.05,63.41 16.25,118.03 40.76,169.35 0.73,1.53 0.4,3 -1.15,3l-81.61 0c-1.16,0.04 -1.96,-1.39 -1.16,-3z"/>
     <path class="fil2" d="M1081.76 2324.06c23.17,-46.52 36.36,-100.16 40.76,-169.11 0.09,-1.45 2.29,-1.39 2.4,-0.22 6.05,63.41 16.25,118.03 40.76,169.34 0.73,1.53 0.4,3.01 -1.15,3.01l-81.61 0c-1.16,0.04 -1.96,-1.39 -1.16,-3.01z"/>
     <path class="fil2" d="M1982 -479.87c23.17,-46.52 36.36,-100.16 40.76,-169.11 0.09,-1.45 2.29,-1.4 2.4,-0.23 6.05,63.41 16.25,118.02 40.76,169.34 0.73,1.53 0.4,3.01 -1.15,3.01l-81.61 0c-1.16,0.04 -1.96,-1.39 -1.16,-3.01z"/>
     <path class="fil2" d="M1982 -79.3c23.17,-46.52 36.36,-100.17 40.76,-169.11 0.09,-1.45 2.29,-1.4 2.4,-0.23 6.05,63.41 16.25,118.03 40.76,169.34 0.73,1.53 0.4,3 -1.15,3l-81.61 0c-1.16,0.04 -1.96,-1.39 -1.16,-3z"/>
     <path class="fil2" d="M1982 321.26c23.17,-46.52 36.36,-100.17 40.76,-169.11 0.09,-1.46 2.29,-1.4 2.4,-0.23 6.05,63.42 16.25,118.03 40.76,169.34 0.73,1.54 0.4,3.01 -1.15,3.01l-81.61 0c-1.16,0.04 -1.96,-1.39 -1.16,-3.01z"/>
     <path class="fil2" d="M1982 721.82c23.17,-46.51 36.36,-100.17 40.76,-169.11 0.09,-1.45 2.29,-1.4 2.4,-0.23 6.05,63.41 16.25,118.03 40.76,169.34 0.73,1.53 0.4,3 -1.15,3l-81.61 0c-1.16,0.04 -1.96,-1.39 -1.16,-3z"/>
     <path class="fil2" d="M1982 1122.38c23.17,-46.52 36.36,-100.17 40.76,-169.11 0.09,-1.46 2.29,-1.4 2.4,-0.23 6.05,63.41 16.25,118.02 40.76,169.34 0.73,1.53 0.4,3.01 -1.15,3.01l-81.61 0c-1.16,0.04 -1.96,-1.39 -1.16,-3.01z"/>
     <path class="fil2" d="M1982 1522.94c23.17,-46.51 36.36,-100.17 40.76,-169.11 0.09,-1.45 2.29,-1.4 2.4,-0.22 6.05,63.41 16.25,118.03 40.76,169.34 0.73,1.53 0.4,3.01 -1.15,3.01l-81.61 0c-1.16,0.04 -1.96,-1.39 -1.16,-3.01z"/>
     <path class="fil2" d="M1982 1923.51c23.17,-46.52 36.36,-100.17 40.76,-169.11 0.09,-1.46 2.29,-1.4 2.4,-0.24 6.05,63.41 16.25,118.03 40.76,169.35 0.73,1.53 0.4,3 -1.15,3l-81.61 0c-1.16,0.04 -1.96,-1.39 -1.16,-3z"/>
     <path class="fil2" d="M1982 2324.06c23.17,-46.52 36.36,-100.16 40.76,-169.11 0.09,-1.45 2.29,-1.39 2.4,-0.22 6.05,63.41 16.25,118.03 40.76,169.34 0.73,1.53 0.4,3.01 -1.15,3.01l-81.61 0c-1.16,0.04 -1.96,-1.39 -1.16,-3.01z"/>
     <path class="fil2" d="M2882.25 -479.87c23.17,-46.52 36.36,-100.16 40.76,-169.11 0.09,-1.45 2.29,-1.4 2.4,-0.23 6.05,63.41 16.24,118.02 40.75,169.34 0.73,1.53 0.4,3.01 -1.15,3.01l-81.61 0c-1.16,0.04 -1.96,-1.39 -1.16,-3.01z"/>
     <path class="fil2" d="M2882.25 -79.3c23.17,-46.52 36.36,-100.17 40.76,-169.11 0.09,-1.45 2.29,-1.4 2.4,-0.23 6.05,63.41 16.24,118.03 40.75,169.34 0.73,1.53 0.4,3 -1.15,3l-81.61 0c-1.16,0.04 -1.96,-1.39 -1.16,-3z"/>
     <path class="fil2" d="M2882.25 321.26c23.17,-46.52 36.36,-100.17 40.76,-169.11 0.09,-1.46 2.29,-1.4 2.4,-0.23 6.05,63.42 16.24,118.03 40.75,169.34 0.73,1.54 0.4,3.01 -1.15,3.01l-81.61 0c-1.16,0.04 -1.96,-1.39 -1.16,-3.01z"/>
     <path class="fil2" d="M2882.25 721.82c23.17,-46.51 36.36,-100.17 40.76,-169.11 0.09,-1.45 2.29,-1.4 2.4,-0.23 6.05,63.41 16.24,118.03 40.75,169.34 0.73,1.53 0.4,3 -1.15,3l-81.61 0c-1.16,0.04 -1.96,-1.39 -1.16,-3z"/>
     <path class="fil2" d="M2882.25 1122.38c23.17,-46.52 36.36,-100.17 40.76,-169.11 0.09,-1.46 2.29,-1.4 2.4,-0.23 6.05,63.41 16.24,118.02 40.75,169.34 0.73,1.53 0.4,3.01 -1.15,3.01l-81.61 0c-1.16,0.04 -1.96,-1.39 -1.16,-3.01z"/>
     <path class="fil2" d="M2882.25 1522.94c23.17,-46.51 36.36,-100.17 40.76,-169.11 0.09,-1.45 2.29,-1.4 2.4,-0.22 6.05,63.41 16.24,118.03 40.75,169.34 0.73,1.53 0.4,3.01 -1.15,3.01l-81.61 0c-1.16,0.04 -1.96,-1.39 -1.16,-3.01z"/>
     <path class="fil2" d="M2882.25 1923.51c23.17,-46.52 36.36,-100.17 40.76,-169.11 0.09,-1.46 2.29,-1.4 2.4,-0.24 6.05,63.41 16.24,118.03 40.75,169.35 0.73,1.53 0.4,3 -1.15,3l-81.61 0c-1.16,0.04 -1.96,-1.39 -1.16,-3z"/>
     <path class="fil2" d="M2882.25 2324.06c23.17,-46.52 36.36,-100.16 40.76,-169.11 0.09,-1.45 2.29,-1.39 2.4,-0.22 6.05,63.41 16.24,118.03 40.75,169.34 0.73,1.53 0.4,3.01 -1.15,3.01l-81.61 0c-1.16,0.04 -1.96,-1.39 -1.16,-3.01z"/>
     <path class="fil3 str0" d="M138.74 -660.69c32.83,-6.54 61.39,-22.34 84.68,-49.51 21.91,29.43 50.91,52.98 84.38,57.26"/>
     <path class="fil3 str0" d="M138.74 -260.13c32.83,-6.54 61.39,-22.34 84.68,-49.51 21.91,29.43 50.91,52.97 84.38,57.26"/>
     <path class="fil3 str0" d="M138.74 140.43c32.83,-6.54 61.39,-22.33 84.68,-49.51 21.91,29.43 50.91,52.98 84.38,57.26"/>
     <path class="fil3 str0" d="M138.74 541c32.83,-6.54 61.39,-22.35 84.68,-49.52 21.91,29.43 50.91,52.98 84.38,57.26"/>
     <path class="fil3 str0" d="M138.74 941.56c32.83,-6.54 61.39,-22.33 84.68,-49.51 21.91,29.43 50.91,52.98 84.38,57.26"/>
     <path class="fil3 str0" d="M138.74 1342.12c32.83,-6.54 61.39,-22.34 84.68,-49.51 21.91,29.43 50.91,52.98 84.38,57.26"/>
     <path class="fil3 str0" d="M138.74 1742.68c32.83,-6.54 61.39,-22.34 84.68,-49.51 21.91,29.43 50.91,52.98 84.38,57.26"/>
     <path class="fil3 str0" d="M138.74 2143.24c32.83,-6.54 61.39,-22.34 84.68,-49.51 21.91,29.43 50.91,52.98 84.38,57.26"/>
     <path class="fil3 str0" d="M1038.99 -660.69c32.83,-6.54 61.39,-22.34 84.68,-49.51 21.91,29.43 50.91,52.98 84.38,57.26"/>
     <path class="fil3 str0" d="M1038.99 -260.13c32.83,-6.54 61.39,-22.34 84.68,-49.51 21.91,29.43 50.91,52.97 84.38,57.26"/>
     <path class="fil3 str0" d="M1038.99 140.43c32.83,-6.54 61.39,-22.33 84.68,-49.51 21.91,29.43 50.91,52.98 84.38,57.26"/>
     <path class="fil3 str0" d="M1038.99 541c32.83,-6.54 61.39,-22.35 84.68,-49.52 21.91,29.43 50.91,52.98 84.38,57.26"/>
     <path class="fil3 str0" d="M1038.99 941.56c32.83,-6.54 61.39,-22.33 84.68,-49.51 21.91,29.43 50.91,52.98 84.38,57.26"/>
     <path class="fil3 str0" d="M1038.99 1342.12c32.83,-6.54 61.39,-22.34 84.68,-49.51 21.91,29.43 50.91,52.98 84.38,57.26"/>
     <path class="fil3 str0" d="M1038.99 1742.68c32.83,-6.54 61.39,-22.34 84.68,-49.51 21.91,29.43 50.91,52.98 84.38,57.26"/>
     <path class="fil3 str0" d="M1038.99 2143.24c32.83,-6.54 61.39,-22.34 84.68,-49.51 21.91,29.43 50.91,52.98 84.38,57.26"/>
     <path class="fil3 str0" d="M1939.23 -660.69c32.83,-6.54 61.39,-22.34 84.68,-49.51 21.91,29.43 50.91,52.98 84.37,57.26"/>
     <path class="fil3 str0" d="M1939.23 -260.13c32.83,-6.54 61.39,-22.34 84.68,-49.51 21.91,29.43 50.91,52.97 84.37,57.26"/>
     <path class="fil3 str0" d="M1939.23 140.43c32.83,-6.54 61.39,-22.33 84.68,-49.51 21.91,29.43 50.91,52.98 84.37,57.26"/>
     <path class="fil3 str0" d="M1939.23 541c32.83,-6.54 61.39,-22.35 84.68,-49.52 21.91,29.43 50.91,52.98 84.37,57.26"/>
     <path class="fil3 str0" d="M1939.23 941.56c32.83,-6.54 61.39,-22.33 84.68,-49.51 21.91,29.43 50.91,52.98 84.37,57.26"/>
     <path class="fil3 str0" d="M1939.23 1342.12c32.83,-6.54 61.39,-22.34 84.68,-49.51 21.91,29.43 50.91,52.98 84.37,57.26"/>
     <path class="fil3 str0" d="M1939.23 1742.68c32.83,-6.54 61.39,-22.34 84.68,-49.51 21.91,29.43 50.91,52.98 84.37,57.26"/>
     <path class="fil3 str0" d="M1939.23 2143.24c32.83,-6.54 61.39,-22.34 84.68,-49.51 21.91,29.43 50.91,52.98 84.37,57.26"/>
     <path class="fil3 str0" d="M2839.48 -660.69c32.83,-6.54 61.39,-22.34 84.68,-49.51 21.91,29.43 50.91,52.98 84.37,57.26"/>
     <path class="fil3 str0" d="M2839.48 -260.13c32.83,-6.54 61.39,-22.34 84.68,-49.51 21.91,29.43 50.91,52.97 84.37,57.26"/>
     <path class="fil3 str0" d="M2839.48 140.43c32.83,-6.54 61.39,-22.33 84.68,-49.51 21.91,29.43 50.91,52.98 84.37,57.26"/>
     <path class="fil3 str0" d="M2839.48 541c32.83,-6.54 61.39,-22.35 84.68,-49.52 21.91,29.43 50.91,52.98 84.37,57.26"/>
     <path class="fil3 str0" d="M2839.48 941.56c32.83,-6.54 61.39,-22.33 84.68,-49.51 21.91,29.43 50.91,52.98 84.37,57.26"/>
     <path class="fil3 str0" d="M2839.48 1342.12c32.83,-6.54 61.39,-22.34 84.68,-49.51 21.91,29.43 50.91,52.98 84.37,57.26"/>
     <path class="fil3 str0" d="M2839.48 1742.68c32.83,-6.54 61.39,-22.34 84.68,-49.51 21.91,29.43 50.91,52.98 84.37,57.26"/>
     <path class="fil3 str0" d="M2839.48 2143.24c32.83,-6.54 61.39,-22.34 84.68,-49.51 21.91,29.43 50.91,52.98 84.37,57.26"/>
     <polyline class="fil3 str1" points="89.72,-582.78 138.7,-650.08 187.15,-580.91 "/>
     <polyline class="fil3 str1" points="89.72,-182.22 138.7,-249.52 187.15,-180.35 "/>
     <polyline class="fil3 str1" points="89.72,218.35 138.7,151.04 187.15,220.21 "/>
     <polyline class="fil3 str1" points="89.72,618.91 138.7,551.61 187.15,620.77 "/>
     <polyline class="fil3 str1" points="89.72,1019.47 138.7,952.17 187.15,1021.33 "/>
     <polyline class="fil3 str1" points="89.72,1420.04 138.7,1352.73 187.15,1421.89 "/>
     <polyline class="fil3 str1" points="89.72,1820.59 138.7,1753.3 187.15,1822.46 "/>
     <polyline class="fil3 str1" points="89.72,2221.16 138.7,2153.85 187.15,2223.02 "/>
     <polyline class="fil3 str1" points="989.96,-582.78 1038.95,-650.08 1087.39,-580.91 "/>
     <polyline class="fil3 str1" points="989.96,-182.22 1038.95,-249.52 1087.39,-180.35 "/>
     <polyline class="fil3 str1" points="989.96,218.35 1038.95,151.04 1087.39,220.21 "/>
     <polyline class="fil3 str1" points="989.96,618.91 1038.95,551.61 1087.39,620.77 "/>
     <polyline class="fil3 str1" points="989.96,1019.47 1038.95,952.17 1087.39,1021.33 "/>
     <polyline class="fil3 str1" points="989.96,1420.04 1038.95,1352.73 1087.39,1421.89 "/>
     <polyline class="fil3 str1" points="989.96,1820.59 1038.95,1753.3 1087.39,1822.46 "/>
     <polyline class="fil3 str1" points="989.96,2221.16 1038.95,2153.85 1087.39,2223.02 "/>
     <polyline class="fil3 str1" points="1890.21,-582.78 1939.19,-650.08 1987.63,-580.91 "/>
     <polyline class="fil3 str1" points="1890.21,-182.22 1939.19,-249.52 1987.63,-180.35 "/>
     <polyline class="fil3 str1" points="1890.21,218.35 1939.19,151.04 1987.63,220.21 "/>
     <polyline class="fil3 str1" points="1890.21,618.91 1939.19,551.61 1987.63,620.77 "/>
     <polyline class="fil3 str1" points="1890.21,1019.47 1939.19,952.17 1987.63,1021.33 "/>
     <polyline class="fil3 str1" points="1890.21,1420.04 1939.19,1352.73 1987.63,1421.89 "/>
     <polyline class="fil3 str1" points="1890.21,1820.59 1939.19,1753.3 1987.63,1822.46 "/>
     <polyline class="fil3 str1" points="1890.21,2221.16 1939.19,2153.85 1987.63,2223.02 "/>
     <polyline class="fil3 str1" points="2790.45,-582.78 2839.44,-650.08 2887.88,-580.91 "/>
     <polyline class="fil3 str1" points="2790.45,-182.22 2839.44,-249.52 2887.88,-180.35 "/>
     <polyline class="fil3 str1" points="2790.45,218.35 2839.44,151.04 2887.88,220.21 "/>
     <polyline class="fil3 str1" points="2790.45,618.91 2839.44,551.61 2887.88,620.77 "/>
     <polyline class="fil3 str1" points="2790.45,1019.47 2839.44,952.17 2887.88,1021.33 "/>
     <polyline class="fil3 str1" points="2790.45,1420.04 2839.44,1352.73 2887.88,1421.89 "/>
     <polyline class="fil3 str1" points="2790.45,1820.59 2839.44,1753.3 2887.88,1822.46 "/>
     <polyline class="fil3 str1" points="2790.45,2221.16 2839.44,2153.85 2887.88,2223.02 "/>
     <polyline class="fil3 str1" points="257.01,-569.58 307.99,-639.63 358.41,-567.65 "/>
     <polyline class="fil3 str1" points="257.01,-169.02 307.99,-239.07 358.41,-167.08 "/>
     <polyline class="fil3 str1" points="257.01,231.54 307.99,161.49 358.41,233.48 "/>
     <polyline class="fil3 str1" points="257.01,632.1 307.99,562.05 358.41,634.04 "/>
     <polyline class="fil3 str1" points="257.01,1032.67 307.99,962.61 358.41,1034.6 "/>
     <polyline class="fil3 str1" points="257.01,1433.22 307.99,1363.18 358.41,1435.16 "/>
     <polyline class="fil3 str1" points="257.01,1833.79 307.99,1763.74 358.41,1835.72 "/>
     <polyline class="fil3 str1" points="257.01,2234.35 307.99,2164.3 358.41,2236.29 "/>
     <polyline class="fil3 str1" points="1157.26,-569.58 1208.23,-639.63 1258.65,-567.65 "/>
     <polyline class="fil3 str1" points="1157.26,-169.02 1208.23,-239.07 1258.65,-167.08 "/>
     <polyline class="fil3 str1" points="1157.26,231.54 1208.23,161.49 1258.65,233.48 "/>
     <polyline class="fil3 str1" points="1157.26,632.1 1208.23,562.05 1258.65,634.04 "/>
     <polyline class="fil3 str1" points="1157.26,1032.67 1208.23,962.61 1258.65,1034.6 "/>
     <polyline class="fil3 str1" points="1157.26,1433.22 1208.23,1363.18 1258.65,1435.16 "/>
     <polyline class="fil3 str1" points="1157.26,1833.79 1208.23,1763.74 1258.65,1835.72 "/>
     <polyline class="fil3 str1" points="1157.26,2234.35 1208.23,2164.3 1258.65,2236.29 "/>
     <polyline class="fil3 str1" points="2057.5,-569.58 2108.48,-639.63 2158.9,-567.65 "/>
     <polyline class="fil3 str1" points="2057.5,-169.02 2108.48,-239.07 2158.9,-167.08 "/>
     <polyline class="fil3 str1" points="2057.5,231.54 2108.48,161.49 2158.9,233.48 "/>
     <polyline class="fil3 str1" points="2057.5,632.1 2108.48,562.05 2158.9,634.04 "/>
     <polyline class="fil3 str1" points="2057.5,1032.67 2108.48,962.61 2158.9,1034.6 "/>
     <polyline class="fil3 str1" points="2057.5,1433.22 2108.48,1363.18 2158.9,1435.16 "/>
     <polyline class="fil3 str1" points="2057.5,1833.79 2108.48,1763.74 2158.9,1835.72 "/>
     <polyline class="fil3 str1" points="2057.5,2234.35 2108.48,2164.3 2158.9,2236.29 "/>
     <polyline class="fil3 str1" points="2957.74,-569.58 3008.72,-639.63 3059.14,-567.65 "/>
     <polyline class="fil3 str1" points="2957.74,-169.02 3008.72,-239.07 3059.14,-167.08 "/>
     <polyline class="fil3 str1" points="2957.74,231.54 3008.72,161.49 3059.14,233.48 "/>
     <polyline class="fil3 str1" points="2957.74,632.1 3008.72,562.05 3059.14,634.04 "/>
     <polyline class="fil3 str1" points="2957.74,1032.67 3008.72,962.61 3059.14,1034.6 "/>
     <polyline class="fil3 str1" points="2957.74,1433.22 3008.72,1363.18 3059.14,1435.16 "/>
     <polyline class="fil3 str1" points="2957.74,1833.79 3008.72,1763.74 3059.14,1835.72 "/>
     <polyline class="fil3 str1" points="2957.74,2234.35 3008.72,2164.3 3059.14,2236.29 "/>
     <path class="fil1" d="M760.74 -574.02l-55.99 0c0,14.63 25.07,26.48 55.99,26.48 30.92,0 55.99,-11.86 55.99,-26.48l-55.99 0z"/>
     <path class="fil1" d="M760.74 -173.46l-55.99 0c0,14.63 25.07,26.49 55.99,26.49 30.92,0 55.99,-11.86 55.99,-26.49l-55.99 0z"/>
     <path class="fil1" d="M760.74 227.11l-55.99 0c0,14.63 25.07,26.48 55.99,26.48 30.92,0 55.99,-11.86 55.99,-26.48l-55.99 0z"/>
     <path class="fil1" d="M760.74 627.67l-55.99 0c0,14.62 25.07,26.48 55.99,26.48 30.92,0 55.99,-11.86 55.99,-26.48l-55.99 0z"/>
     <path class="fil1" d="M760.74 1028.23l-55.99 0c0,14.63 25.07,26.49 55.99,26.49 30.92,0 55.99,-11.86 55.99,-26.49l-55.99 0z"/>
     <path class="fil1" d="M760.74 1428.8l-55.99 0c0,14.63 25.07,26.48 55.99,26.48 30.92,0 55.99,-11.85 55.99,-26.48l-55.99 0z"/>
     <path class="fil1" d="M760.74 1829.35l-55.99 0c0,14.63 25.07,26.48 55.99,26.48 30.92,0 55.99,-11.86 55.99,-26.48l-55.99 0z"/>
     <path class="fil1" d="M760.74 2229.92l-55.99 0c0,14.63 25.07,26.49 55.99,26.49 30.92,0 55.99,-11.86 55.99,-26.49l-55.99 0z"/>
     <path class="fil1" d="M1660.98 -574.02l-55.99 0c0,14.63 25.07,26.48 55.99,26.48 30.92,0 55.99,-11.86 55.99,-26.48l-55.99 0z"/>
     <path class="fil1" d="M1660.98 -173.46l-55.99 0c0,14.63 25.07,26.49 55.99,26.49 30.92,0 55.99,-11.86 55.99,-26.49l-55.99 0z"/>
     <path class="fil1" d="M1660.98 227.11l-55.99 0c0,14.63 25.07,26.48 55.99,26.48 30.92,0 55.99,-11.86 55.99,-26.48l-55.99 0z"/>
     <path class="fil1" d="M1660.98 627.67l-55.99 0c0,14.62 25.07,26.48 55.99,26.48 30.92,0 55.99,-11.86 55.99,-26.48l-55.99 0z"/>
     <path class="fil1" d="M1660.98 1028.23l-55.99 0c0,14.63 25.07,26.49 55.99,26.49 30.92,0 55.99,-11.86 55.99,-26.49l-55.99 0z"/>
     <path class="fil1" d="M1660.98 1428.8l-55.99 0c0,14.63 25.07,26.48 55.99,26.48 30.92,0 55.99,-11.85 55.99,-26.48l-55.99 0z"/>
     <path class="fil1" d="M1660.98 1829.35l-55.99 0c0,14.63 25.07,26.48 55.99,26.48 30.92,0 55.99,-11.86 55.99,-26.48l-55.99 0z"/>
     <path class="fil1" d="M1660.98 2229.92l-55.99 0c0,14.63 25.07,26.49 55.99,26.49 30.92,0 55.99,-11.86 55.99,-26.49l-55.99 0z"/>
     <path class="fil1" d="M2561.23 -574.02l-55.99 0c0,14.63 25.07,26.48 55.99,26.48 30.92,0 55.99,-11.86 55.99,-26.48l-55.99 0z"/>
     <path class="fil1" d="M2561.23 -173.46l-55.99 0c0,14.63 25.07,26.49 55.99,26.49 30.92,0 55.99,-11.86 55.99,-26.49l-55.99 0z"/>
     <path class="fil1" d="M2561.23 227.11l-55.99 0c0,14.63 25.07,26.48 55.99,26.48 30.92,0 55.99,-11.86 55.99,-26.48l-55.99 0z"/>
     <path class="fil1" d="M2561.23 627.67l-55.99 0c0,14.62 25.07,26.48 55.99,26.48 30.92,0 55.99,-11.86 55.99,-26.48l-55.99 0z"/>
     <path class="fil1" d="M2561.23 1028.23l-55.99 0c0,14.63 25.07,26.49 55.99,26.49 30.92,0 55.99,-11.86 55.99,-26.49l-55.99 0z"/>
     <path class="fil1" d="M2561.23 1428.8l-55.99 0c0,14.63 25.07,26.48 55.99,26.48 30.92,0 55.99,-11.85 55.99,-26.48l-55.99 0z"/>
     <path class="fil1" d="M2561.23 1829.35l-55.99 0c0,14.63 25.07,26.48 55.99,26.48 30.92,0 55.99,-11.86 55.99,-26.48l-55.99 0z"/>
     <path class="fil1" d="M2561.23 2229.92l-55.99 0c0,14.63 25.07,26.49 55.99,26.49 30.92,0 55.99,-11.86 55.99,-26.49l-55.99 0z"/>
     <path class="fil1" d="M3461.47 -574.02l-55.99 0c0,14.63 25.07,26.48 55.99,26.48 30.92,0 55.99,-11.86 55.99,-26.48l-55.99 0z"/>
     <path class="fil1" d="M3461.47 -173.46l-55.99 0c0,14.63 25.07,26.49 55.99,26.49 30.92,0 55.99,-11.86 55.99,-26.49l-55.99 0z"/>
     <path class="fil1" d="M3461.47 227.11l-55.99 0c0,14.63 25.07,26.48 55.99,26.48 30.92,0 55.99,-11.86 55.99,-26.48l-55.99 0z"/>
     <path class="fil1" d="M3461.47 627.67l-55.99 0c0,14.62 25.07,26.48 55.99,26.48 30.92,0 55.99,-11.86 55.99,-26.48l-55.99 0z"/>
     <path class="fil1" d="M3461.47 1028.23l-55.99 0c0,14.63 25.07,26.49 55.99,26.49 30.92,0 55.99,-11.86 55.99,-26.49l-55.99 0z"/>
     <path class="fil1" d="M3461.47 1428.8l-55.99 0c0,14.63 25.07,26.48 55.99,26.48 30.92,0 55.99,-11.85 55.99,-26.48l-55.99 0z"/>
     <path class="fil1" d="M3461.47 1829.35l-55.99 0c0,14.63 25.07,26.48 55.99,26.48 30.92,0 55.99,-11.86 55.99,-26.48l-55.99 0z"/>
     <path class="fil1" d="M3461.47 2229.92l-55.99 0c0,14.63 25.07,26.49 55.99,26.49 30.92,0 55.99,-11.86 55.99,-26.49l-55.99 0z"/>
     <path class="fil1" d="M591.46 -563.57l-55.99 0c0,14.63 25.07,26.48 55.99,26.48 30.92,0 55.99,-11.86 55.99,-26.48l-55.99 0z"/>
     <path class="fil1" d="M591.46 -163.01l-55.99 0c0,14.63 25.07,26.48 55.99,26.48 30.92,0 55.99,-11.85 55.99,-26.48l-55.99 0z"/>
     <path class="fil1" d="M591.46 237.56l-55.99 0c0,14.63 25.07,26.48 55.99,26.48 30.92,0 55.99,-11.86 55.99,-26.48l-55.99 0z"/>
     <path class="fil1" d="M591.46 638.12l-55.99 0c0,14.62 25.07,26.48 55.99,26.48 30.92,0 55.99,-11.86 55.99,-26.48l-55.99 0z"/>
     <path class="fil1" d="M591.46 1038.68l-55.99 0c0,14.63 25.07,26.48 55.99,26.48 30.92,0 55.99,-11.85 55.99,-26.48l-55.99 0z"/>
     <path class="fil1" d="M591.46 1439.24l-55.99 0c0,14.62 25.07,26.48 55.99,26.48 30.92,0 55.99,-11.86 55.99,-26.48l-55.99 0z"/>
     <path class="fil1" d="M591.46 1839.8l-55.99 0c0,14.63 25.07,26.48 55.99,26.48 30.92,0 55.99,-11.86 55.99,-26.48l-55.99 0z"/>
     <path class="fil1" d="M591.46 2240.36l-55.99 0c0,14.64 25.07,26.5 55.99,26.5 30.92,0 55.99,-11.86 55.99,-26.5l-55.99 0z"/>
     <path class="fil1" d="M1491.71 -563.57l-55.99 0c0,14.63 25.07,26.48 55.99,26.48 30.92,0 55.99,-11.86 55.99,-26.48l-55.99 0z"/>
     <path class="fil1" d="M1491.71 -163.01l-55.99 0c0,14.63 25.07,26.48 55.99,26.48 30.92,0 55.99,-11.85 55.99,-26.48l-55.99 0z"/>
     <path class="fil1" d="M1491.71 237.56l-55.99 0c0,14.63 25.07,26.48 55.99,26.48 30.92,0 55.99,-11.86 55.99,-26.48l-55.99 0z"/>
     <path class="fil1" d="M1491.71 638.12l-55.99 0c0,14.62 25.07,26.48 55.99,26.48 30.92,0 55.99,-11.86 55.99,-26.48l-55.99 0z"/>
     <path class="fil1" d="M1491.71 1038.68l-55.99 0c0,14.63 25.07,26.48 55.99,26.48 30.92,0 55.99,-11.85 55.99,-26.48l-55.99 0z"/>
     <path class="fil1" d="M1491.71 1439.24l-55.99 0c0,14.62 25.07,26.48 55.99,26.48 30.92,0 55.99,-11.86 55.99,-26.48l-55.99 0z"/>
     <path class="fil1" d="M1491.71 1839.8l-55.99 0c0,14.63 25.07,26.48 55.99,26.48 30.92,0 55.99,-11.86 55.99,-26.48l-55.99 0z"/>
     <path class="fil1" d="M1491.71 2240.36l-55.99 0c0,14.64 25.07,26.5 55.99,26.5 30.92,0 55.99,-11.86 55.99,-26.5l-55.99 0z"/>
     <path class="fil1" d="M2391.95 -563.57l-55.99 0c0,14.63 25.07,26.48 55.99,26.48 30.92,0 55.99,-11.86 55.99,-26.48l-55.99 0z"/>
     <path class="fil1" d="M2391.95 -163.01l-55.99 0c0,14.63 25.07,26.48 55.99,26.48 30.92,0 55.99,-11.85 55.99,-26.48l-55.99 0z"/>
     <path class="fil1" d="M2391.95 237.56l-55.99 0c0,14.63 25.07,26.48 55.99,26.48 30.92,0 55.99,-11.86 55.99,-26.48l-55.99 0z"/>
     <path class="fil1" d="M2391.95 638.12l-55.99 0c0,14.62 25.07,26.48 55.99,26.48 30.92,0 55.99,-11.86 55.99,-26.48l-55.99 0z"/>
     <path class="fil1" d="M2391.95 1038.68l-55.99 0c0,14.63 25.07,26.48 55.99,26.48 30.92,0 55.99,-11.85 55.99,-26.48l-55.99 0z"/>
     <path class="fil1" d="M2391.95 1439.24l-55.99 0c0,14.62 25.07,26.48 55.99,26.48 30.92,0 55.99,-11.86 55.99,-26.48l-55.99 0z"/>
     <path class="fil1" d="M2391.95 1839.8l-55.99 0c0,14.63 25.07,26.48 55.99,26.48 30.92,0 55.99,-11.86 55.99,-26.48l-55.99 0z"/>
     <path class="fil1" d="M2391.95 2240.36l-55.99 0c0,14.64 25.07,26.5 55.99,26.5 30.92,0 55.99,-11.86 55.99,-26.5l-55.99 0z"/>
     <path class="fil1" d="M3292.2 -563.57l-55.99 0c0,14.63 25.07,26.48 55.99,26.48 30.92,0 55.99,-11.86 55.99,-26.48l-55.99 0z"/>
     <path class="fil1" d="M3292.2 -163.01l-55.99 0c0,14.63 25.07,26.48 55.99,26.48 30.92,0 55.99,-11.85 55.99,-26.48l-55.99 0z"/>
     <path class="fil1" d="M3292.2 237.56l-55.99 0c0,14.63 25.07,26.48 55.99,26.48 30.92,0 55.99,-11.86 55.99,-26.48l-55.99 0z"/>
     <path class="fil1" d="M3292.2 638.12l-55.99 0c0,14.62 25.07,26.48 55.99,26.48 30.92,0 55.99,-11.86 55.99,-26.48l-55.99 0z"/>
     <path class="fil1" d="M3292.2 1038.68l-55.99 0c0,14.63 25.07,26.48 55.99,26.48 30.92,0 55.99,-11.85 55.99,-26.48l-55.99 0z"/>
     <path class="fil1" d="M3292.2 1439.24l-55.99 0c0,14.62 25.07,26.48 55.99,26.48 30.92,0 55.99,-11.86 55.99,-26.48l-55.99 0z"/>
     <path class="fil1" d="M3292.2 1839.8l-55.99 0c0,14.63 25.07,26.48 55.99,26.48 30.92,0 55.99,-11.86 55.99,-26.48l-55.99 0z"/>
     <path class="fil1" d="M3292.2 2240.36l-55.99 0c0,14.64 25.07,26.5 55.99,26.5 30.92,0 55.99,-11.86 55.99,-26.5l-55.99 0z"/>
     <path class="fil2" d="M717.75 -481.04c-23.17,-46.52 -36.36,-100.17 -40.76,-169.11 -0.09,-1.45 -2.29,-1.4 -2.4,-0.23 -6.05,63.42 -16.25,118.03 -40.76,169.34 -0.73,1.53 -0.4,3.01 1.15,3.01l81.61 0c1.16,0.04 1.96,-1.39 1.16,-3.01z"/>
     <path class="fil2" d="M717.75 -80.47c-23.17,-46.52 -36.36,-100.17 -40.76,-169.11 -0.09,-1.45 -2.29,-1.4 -2.4,-0.23 -6.05,63.41 -16.25,118.03 -40.76,169.34 -0.73,1.53 -0.4,3.01 1.15,3.01l81.61 0c1.16,0.04 1.96,-1.39 1.16,-3.01z"/>
     <path class="fil2" d="M717.75 320.09c-23.17,-46.52 -36.36,-100.16 -40.76,-169.11 -0.09,-1.46 -2.29,-1.4 -2.4,-0.23 -6.05,63.41 -16.25,118.03 -40.76,169.34 -0.73,1.53 -0.4,3.01 1.15,3.01l81.61 0c1.16,0.03 1.96,-1.4 1.16,-3.01z"/>
     <path class="fil2" d="M717.75 720.65c-23.17,-46.52 -36.36,-100.17 -40.76,-169.11 -0.09,-1.45 -2.29,-1.4 -2.4,-0.23 -6.05,63.42 -16.25,118.03 -40.76,169.35 -0.73,1.53 -0.4,3 1.15,3l81.61 0c1.16,0.04 1.96,-1.39 1.16,-3z"/>
     <path class="fil2" d="M717.75 1121.21c-23.17,-46.52 -36.36,-100.17 -40.76,-169.11 -0.09,-1.46 -2.29,-1.4 -2.4,-0.23 -6.05,63.41 -16.25,118.03 -40.76,169.34 -0.73,1.54 -0.4,3.01 1.15,3.01l81.61 0c1.16,0.04 1.96,-1.39 1.16,-3.01z"/>
     <path class="fil2" d="M717.75 1521.78c-23.17,-46.52 -36.36,-100.17 -40.76,-169.11 -0.09,-1.45 -2.29,-1.4 -2.4,-0.23 -6.05,63.41 -16.25,118.03 -40.76,169.34 -0.73,1.53 -0.4,3 1.15,3l81.61 0c1.16,0.04 1.96,-1.39 1.16,-3z"/>
     <path class="fil2" d="M717.75 1922.34c-23.17,-46.52 -36.36,-100.18 -40.76,-169.11 -0.09,-1.46 -2.29,-1.41 -2.4,-0.24 -6.05,63.42 -16.25,118.03 -40.76,169.35 -0.73,1.52 -0.4,3 1.15,3l81.61 0c1.16,0.04 1.96,-1.39 1.16,-3z"/>
     <path class="fil2" d="M717.75 2322.9c-23.17,-46.51 -36.36,-100.17 -40.76,-169.11 -0.09,-1.45 -2.29,-1.4 -2.4,-0.22 -6.05,63.41 -16.25,118.02 -40.76,169.34 -0.73,1.53 -0.4,3.01 1.15,3.01l81.61 0c1.16,0.04 1.96,-1.39 1.16,-3.01z"/>
     <path class="fil2" d="M1617.99 -481.04c-23.17,-46.52 -36.36,-100.17 -40.76,-169.11 -0.09,-1.45 -2.29,-1.4 -2.4,-0.23 -6.05,63.42 -16.25,118.03 -40.76,169.34 -0.73,1.53 -0.4,3.01 1.15,3.01l81.61 0c1.16,0.04 1.96,-1.39 1.16,-3.01z"/>
     <path class="fil2" d="M1617.99 -80.47c-23.17,-46.52 -36.36,-100.17 -40.76,-169.11 -0.09,-1.45 -2.29,-1.4 -2.4,-0.23 -6.05,63.41 -16.25,118.03 -40.76,169.34 -0.73,1.53 -0.4,3.01 1.15,3.01l81.61 0c1.16,0.04 1.96,-1.39 1.16,-3.01z"/>
     <path class="fil2" d="M1617.99 320.09c-23.17,-46.52 -36.36,-100.16 -40.76,-169.11 -0.09,-1.46 -2.29,-1.4 -2.4,-0.23 -6.05,63.41 -16.25,118.03 -40.76,169.34 -0.73,1.53 -0.4,3.01 1.15,3.01l81.61 0c1.16,0.03 1.96,-1.4 1.16,-3.01z"/>
     <path class="fil2" d="M1617.99 720.65c-23.17,-46.52 -36.36,-100.17 -40.76,-169.11 -0.09,-1.45 -2.29,-1.4 -2.4,-0.23 -6.05,63.42 -16.25,118.03 -40.76,169.35 -0.73,1.53 -0.4,3 1.15,3l81.61 0c1.16,0.04 1.96,-1.39 1.16,-3z"/>
     <path class="fil2" d="M1617.99 1121.21c-23.17,-46.52 -36.36,-100.17 -40.76,-169.11 -0.09,-1.46 -2.29,-1.4 -2.4,-0.23 -6.05,63.41 -16.25,118.03 -40.76,169.34 -0.73,1.54 -0.4,3.01 1.15,3.01l81.61 0c1.16,0.04 1.96,-1.39 1.16,-3.01z"/>
     <path class="fil2" d="M1617.99 1521.78c-23.17,-46.52 -36.36,-100.17 -40.76,-169.11 -0.09,-1.45 -2.29,-1.4 -2.4,-0.23 -6.05,63.41 -16.25,118.03 -40.76,169.34 -0.73,1.53 -0.4,3 1.15,3l81.61 0c1.16,0.04 1.96,-1.39 1.16,-3z"/>
     <path class="fil2" d="M1617.99 1922.34c-23.17,-46.52 -36.36,-100.18 -40.76,-169.11 -0.09,-1.46 -2.29,-1.41 -2.4,-0.24 -6.05,63.42 -16.25,118.03 -40.76,169.35 -0.73,1.52 -0.4,3 1.15,3l81.61 0c1.16,0.04 1.96,-1.39 1.16,-3z"/>
     <path class="fil2" d="M1617.99 2322.9c-23.17,-46.51 -36.36,-100.17 -40.76,-169.11 -0.09,-1.45 -2.29,-1.4 -2.4,-0.22 -6.05,63.41 -16.25,118.02 -40.76,169.34 -0.73,1.53 -0.4,3.01 1.15,3.01l81.61 0c1.16,0.04 1.96,-1.39 1.16,-3.01z"/>
     <path class="fil2" d="M2518.24 -481.04c-23.17,-46.52 -36.36,-100.17 -40.76,-169.11 -0.09,-1.45 -2.29,-1.4 -2.4,-0.23 -6.05,63.42 -16.25,118.03 -40.75,169.34 -0.73,1.53 -0.41,3.01 1.15,3.01l81.61 0c1.15,0.04 1.96,-1.39 1.15,-3.01z"/>
     <path class="fil2" d="M2518.24 -80.47c-23.17,-46.52 -36.36,-100.17 -40.76,-169.11 -0.09,-1.45 -2.29,-1.4 -2.4,-0.23 -6.05,63.41 -16.25,118.03 -40.75,169.34 -0.73,1.53 -0.41,3.01 1.15,3.01l81.61 0c1.15,0.04 1.96,-1.39 1.15,-3.01z"/>
     <path class="fil2" d="M2518.24 320.09c-23.17,-46.52 -36.36,-100.16 -40.76,-169.11 -0.09,-1.46 -2.29,-1.4 -2.4,-0.23 -6.05,63.41 -16.25,118.03 -40.75,169.34 -0.73,1.53 -0.41,3.01 1.15,3.01l81.61 0c1.15,0.03 1.96,-1.4 1.15,-3.01z"/>
     <path class="fil2" d="M2518.24 720.65c-23.17,-46.52 -36.36,-100.17 -40.76,-169.11 -0.09,-1.45 -2.29,-1.4 -2.4,-0.23 -6.05,63.42 -16.25,118.03 -40.75,169.35 -0.73,1.53 -0.41,3 1.15,3l81.61 0c1.15,0.04 1.96,-1.39 1.15,-3z"/>
     <path class="fil2" d="M2518.24 1121.21c-23.17,-46.52 -36.36,-100.17 -40.76,-169.11 -0.09,-1.46 -2.29,-1.4 -2.4,-0.23 -6.05,63.41 -16.25,118.03 -40.75,169.34 -0.73,1.54 -0.41,3.01 1.15,3.01l81.61 0c1.15,0.04 1.96,-1.39 1.15,-3.01z"/>
     <path class="fil2" d="M2518.24 1521.78c-23.17,-46.52 -36.36,-100.17 -40.76,-169.11 -0.09,-1.45 -2.29,-1.4 -2.4,-0.23 -6.05,63.41 -16.25,118.03 -40.75,169.34 -0.73,1.53 -0.41,3 1.15,3l81.61 0c1.15,0.04 1.96,-1.39 1.15,-3z"/>
     <path class="fil2" d="M2518.24 1922.34c-23.17,-46.52 -36.36,-100.18 -40.76,-169.11 -0.09,-1.46 -2.29,-1.41 -2.4,-0.24 -6.05,63.42 -16.25,118.03 -40.75,169.35 -0.73,1.52 -0.41,3 1.15,3l81.61 0c1.15,0.04 1.96,-1.39 1.15,-3z"/>
     <path class="fil2" d="M2518.24 2322.9c-23.17,-46.51 -36.36,-100.17 -40.76,-169.11 -0.09,-1.45 -2.29,-1.4 -2.4,-0.22 -6.05,63.41 -16.25,118.02 -40.75,169.34 -0.73,1.53 -0.41,3.01 1.15,3.01l81.61 0c1.15,0.04 1.96,-1.39 1.15,-3.01z"/>
     <path class="fil2" d="M3418.48 -481.04c-23.17,-46.52 -36.36,-100.17 -40.76,-169.11 -0.09,-1.45 -2.29,-1.4 -2.4,-0.23 -6.05,63.42 -16.25,118.03 -40.75,169.34 -0.73,1.53 -0.41,3.01 1.15,3.01l81.61 0c1.16,0.04 1.96,-1.39 1.16,-3.01z"/>
     <path class="fil2" d="M3418.48 -80.47c-23.17,-46.52 -36.36,-100.17 -40.76,-169.11 -0.09,-1.45 -2.29,-1.4 -2.4,-0.23 -6.05,63.41 -16.25,118.03 -40.75,169.34 -0.73,1.53 -0.41,3.01 1.15,3.01l81.61 0c1.16,0.04 1.96,-1.39 1.16,-3.01z"/>
     <path class="fil2" d="M3418.48 320.09c-23.17,-46.52 -36.36,-100.16 -40.76,-169.11 -0.09,-1.46 -2.29,-1.4 -2.4,-0.23 -6.05,63.41 -16.25,118.03 -40.75,169.34 -0.73,1.53 -0.41,3.01 1.15,3.01l81.61 0c1.16,0.03 1.96,-1.4 1.16,-3.01z"/>
     <path class="fil2" d="M3418.48 720.65c-23.17,-46.52 -36.36,-100.17 -40.76,-169.11 -0.09,-1.45 -2.29,-1.4 -2.4,-0.23 -6.05,63.42 -16.25,118.03 -40.75,169.35 -0.73,1.53 -0.41,3 1.15,3l81.61 0c1.16,0.04 1.96,-1.39 1.16,-3z"/>
     <path class="fil2" d="M3418.48 1121.21c-23.17,-46.52 -36.36,-100.17 -40.76,-169.11 -0.09,-1.46 -2.29,-1.4 -2.4,-0.23 -6.05,63.41 -16.25,118.03 -40.75,169.34 -0.73,1.54 -0.41,3.01 1.15,3.01l81.61 0c1.16,0.04 1.96,-1.39 1.16,-3.01z"/>
     <path class="fil2" d="M3418.48 1521.78c-23.17,-46.52 -36.36,-100.17 -40.76,-169.11 -0.09,-1.45 -2.29,-1.4 -2.4,-0.23 -6.05,63.41 -16.25,118.03 -40.75,169.34 -0.73,1.53 -0.41,3 1.15,3l81.61 0c1.16,0.04 1.96,-1.39 1.16,-3z"/>
     <path class="fil2" d="M3418.48 1922.34c-23.17,-46.52 -36.36,-100.18 -40.76,-169.11 -0.09,-1.46 -2.29,-1.41 -2.4,-0.24 -6.05,63.42 -16.25,118.03 -40.75,169.35 -0.73,1.52 -0.41,3 1.15,3l81.61 0c1.16,0.04 1.96,-1.39 1.16,-3z"/>
     <path class="fil2" d="M3418.48 2322.9c-23.17,-46.51 -36.36,-100.17 -40.76,-169.11 -0.09,-1.45 -2.29,-1.4 -2.4,-0.22 -6.05,63.41 -16.25,118.02 -40.75,169.34 -0.73,1.53 -0.41,3.01 1.15,3.01l81.61 0c1.16,0.04 1.96,-1.39 1.16,-3.01z"/>
     <path class="fil3 str0" d="M760.52 -661.86c-32.83,-6.54 -61.39,-22.33 -84.68,-49.51 -21.91,29.43 -50.91,52.98 -84.37,57.26"/>
     <path class="fil3 str0" d="M760.52 -261.3c-32.83,-6.54 -61.39,-22.34 -84.68,-49.51 -21.91,29.43 -50.91,52.98 -84.37,57.26"/>
     <path class="fil3 str0" d="M760.52 139.26c-32.83,-6.54 -61.39,-22.33 -84.68,-49.51 -21.91,29.43 -50.91,52.98 -84.37,57.26"/>
     <path class="fil3 str0" d="M760.52 539.83c-32.83,-6.54 -61.39,-22.34 -84.68,-49.51 -21.91,29.43 -50.91,52.97 -84.37,57.26"/>
     <path class="fil3 str0" d="M760.52 940.39c-32.83,-6.54 -61.39,-22.33 -84.68,-49.51 -21.91,29.43 -50.91,52.98 -84.37,57.26"/>
     <path class="fil3 str0" d="M760.52 1340.95c-32.83,-6.54 -61.39,-22.34 -84.68,-49.51 -21.91,29.43 -50.91,52.98 -84.37,57.26"/>
     <path class="fil3 str0" d="M760.52 1741.51c-32.83,-6.54 -61.39,-22.33 -84.68,-49.51 -21.91,29.43 -50.91,52.98 -84.37,57.26"/>
     <path class="fil3 str0" d="M760.52 2142.07c-32.83,-6.54 -61.39,-22.33 -84.68,-49.5 -21.91,29.43 -50.91,52.98 -84.37,57.26"/>
     <path class="fil3 str0" d="M1660.76 -661.86c-32.83,-6.54 -61.39,-22.33 -84.68,-49.51 -21.91,29.43 -50.91,52.98 -84.37,57.26"/>
     <path class="fil3 str0" d="M1660.76 -261.3c-32.83,-6.54 -61.39,-22.34 -84.68,-49.51 -21.91,29.43 -50.91,52.98 -84.37,57.26"/>
     <path class="fil3 str0" d="M1660.76 139.26c-32.83,-6.54 -61.39,-22.33 -84.68,-49.51 -21.91,29.43 -50.91,52.98 -84.37,57.26"/>
     <path class="fil3 str0" d="M1660.76 539.83c-32.83,-6.54 -61.39,-22.34 -84.68,-49.51 -21.91,29.43 -50.91,52.97 -84.37,57.26"/>
     <path class="fil3 str0" d="M1660.76 940.39c-32.83,-6.54 -61.39,-22.33 -84.68,-49.51 -21.91,29.43 -50.91,52.98 -84.37,57.26"/>
     <path class="fil3 str0" d="M1660.76 1340.95c-32.83,-6.54 -61.39,-22.34 -84.68,-49.51 -21.91,29.43 -50.91,52.98 -84.37,57.26"/>
     <path class="fil3 str0" d="M1660.76 1741.51c-32.83,-6.54 -61.39,-22.33 -84.68,-49.51 -21.91,29.43 -50.91,52.98 -84.37,57.26"/>
     <path class="fil3 str0" d="M1660.76 2142.07c-32.83,-6.54 -61.39,-22.33 -84.68,-49.5 -21.91,29.43 -50.91,52.98 -84.37,57.26"/>
     <path class="fil3 str0" d="M2561.01 -661.86c-32.83,-6.54 -61.39,-22.33 -84.68,-49.51 -21.91,29.43 -50.91,52.98 -84.38,57.26"/>
     <path class="fil3 str0" d="M2561.01 -261.3c-32.83,-6.54 -61.39,-22.34 -84.68,-49.51 -21.91,29.43 -50.91,52.98 -84.38,57.26"/>
     <path class="fil3 str0" d="M2561.01 139.26c-32.83,-6.54 -61.39,-22.33 -84.68,-49.51 -21.91,29.43 -50.91,52.98 -84.38,57.26"/>
     <path class="fil3 str0" d="M2561.01 539.83c-32.83,-6.54 -61.39,-22.34 -84.68,-49.51 -21.91,29.43 -50.91,52.97 -84.38,57.26"/>
     <path class="fil3 str0" d="M2561.01 940.39c-32.83,-6.54 -61.39,-22.33 -84.68,-49.51 -21.91,29.43 -50.91,52.98 -84.38,57.26"/>
     <path class="fil3 str0" d="M2561.01 1340.95c-32.83,-6.54 -61.39,-22.34 -84.68,-49.51 -21.91,29.43 -50.91,52.98 -84.38,57.26"/>
     <path class="fil3 str0" d="M2561.01 1741.51c-32.83,-6.54 -61.39,-22.33 -84.68,-49.51 -21.91,29.43 -50.91,52.98 -84.38,57.26"/>
     <path class="fil3 str0" d="M2561.01 2142.07c-32.83,-6.54 -61.39,-22.33 -84.68,-49.5 -21.91,29.43 -50.91,52.98 -84.38,57.26"/>
     <path class="fil3 str0" d="M3461.26 -661.86c-32.83,-6.54 -61.39,-22.33 -84.68,-49.51 -21.91,29.43 -50.91,52.98 -84.38,57.26"/>
     <path class="fil3 str0" d="M3461.26 -261.3c-32.83,-6.54 -61.39,-22.34 -84.68,-49.51 -21.91,29.43 -50.91,52.98 -84.38,57.26"/>
     <path class="fil3 str0" d="M3461.26 139.26c-32.83,-6.54 -61.39,-22.33 -84.68,-49.51 -21.91,29.43 -50.91,52.98 -84.38,57.26"/>
     <path class="fil3 str0" d="M3461.26 539.83c-32.83,-6.54 -61.39,-22.34 -84.68,-49.51 -21.91,29.43 -50.91,52.97 -84.38,57.26"/>
     <path class="fil3 str0" d="M3461.26 940.39c-32.83,-6.54 -61.39,-22.33 -84.68,-49.51 -21.91,29.43 -50.91,52.98 -84.38,57.26"/>
     <path class="fil3 str0" d="M3461.26 1340.95c-32.83,-6.54 -61.39,-22.34 -84.68,-49.51 -21.91,29.43 -50.91,52.98 -84.38,57.26"/>
     <path class="fil3 str0" d="M3461.26 1741.51c-32.83,-6.54 -61.39,-22.33 -84.68,-49.51 -21.91,29.43 -50.91,52.98 -84.38,57.26"/>
     <path class="fil3 str0" d="M3461.26 2142.07c-32.83,-6.54 -61.39,-22.33 -84.68,-49.5 -21.91,29.43 -50.91,52.98 -84.38,57.26"/>
     <polyline class="fil3 str1" points="809.54,-583.94 760.56,-651.25 712.12,-582.08 "/>
     <polyline class="fil3 str1" points="809.54,-183.38 760.56,-250.69 712.12,-181.52 "/>
     <polyline class="fil3 str1" points="809.54,217.18 760.56,149.87 712.12,219.04 "/>
     <polyline class="fil3 str1" points="809.54,617.74 760.56,550.44 712.12,619.6 "/>
     <polyline class="fil3 str1" points="809.54,1018.3 760.56,951 712.12,1020.17 "/>
     <polyline class="fil3 str1" points="809.54,1418.86 760.56,1351.56 712.12,1420.72 "/>
     <polyline class="fil3 str1" points="809.54,1819.43 760.56,1752.12 712.12,1821.29 "/>
     <polyline class="fil3 str1" points="809.54,2219.99 760.56,2152.69 712.12,2221.85 "/>
     <polyline class="fil3 str1" points="1709.79,-583.94 1660.8,-651.25 1612.36,-582.08 "/>
     <polyline class="fil3 str1" points="1709.79,-183.38 1660.8,-250.69 1612.36,-181.52 "/>
     <polyline class="fil3 str1" points="1709.79,217.18 1660.8,149.87 1612.36,219.04 "/>
     <polyline class="fil3 str1" points="1709.79,617.74 1660.8,550.44 1612.36,619.6 "/>
     <polyline class="fil3 str1" points="1709.79,1018.3 1660.8,951 1612.36,1020.17 "/>
     <polyline class="fil3 str1" points="1709.79,1418.86 1660.8,1351.56 1612.36,1420.72 "/>
     <polyline class="fil3 str1" points="1709.79,1819.43 1660.8,1752.12 1612.36,1821.29 "/>
     <polyline class="fil3 str1" points="1709.79,2219.99 1660.8,2152.69 1612.36,2221.85 "/>
     <polyline class="fil3 str1" points="2610.03,-583.94 2561.05,-651.25 2512.61,-582.08 "/>
     <polyline class="fil3 str1" points="2610.03,-183.38 2561.05,-250.69 2512.61,-181.52 "/>
     <polyline class="fil3 str1" points="2610.03,217.18 2561.05,149.87 2512.61,219.04 "/>
     <polyline class="fil3 str1" points="2610.03,617.74 2561.05,550.44 2512.61,619.6 "/>
     <polyline class="fil3 str1" points="2610.03,1018.3 2561.05,951 2512.61,1020.17 "/>
     <polyline class="fil3 str1" points="2610.03,1418.86 2561.05,1351.56 2512.61,1420.72 "/>
     <polyline class="fil3 str1" points="2610.03,1819.43 2561.05,1752.12 2512.61,1821.29 "/>
     <polyline class="fil3 str1" points="2610.03,2219.99 2561.05,2152.69 2512.61,2221.85 "/>
     <polyline class="fil3 str1" points="3510.28,-583.94 3461.3,-651.25 3412.85,-582.08 "/>
     <polyline class="fil3 str1" points="3510.28,-183.38 3461.3,-250.69 3412.85,-181.52 "/>
     <polyline class="fil3 str1" points="3510.28,217.18 3461.3,149.87 3412.85,219.04 "/>
     <polyline class="fil3 str1" points="3510.28,617.74 3461.3,550.44 3412.85,619.6 "/>
     <polyline class="fil3 str1" points="3510.28,1018.3 3461.3,951 3412.85,1020.17 "/>
     <polyline class="fil3 str1" points="3510.28,1418.86 3461.3,1351.56 3412.85,1420.72 "/>
     <polyline class="fil3 str1" points="3510.28,1819.43 3461.3,1752.12 3412.85,1821.29 "/>
     <polyline class="fil3 str1" points="3510.28,2219.99 3461.3,2152.69 3412.85,2221.85 "/>
     <polyline class="fil3 str1" points="642.25,-570.75 591.27,-640.8 540.85,-568.81 "/>
     <polyline class="fil3 str1" points="642.25,-170.19 591.27,-240.24 540.85,-168.25 "/>
     <polyline class="fil3 str1" points="642.25,230.37 591.27,160.32 540.85,232.31 "/>
     <polyline class="fil3 str1" points="642.25,630.94 591.27,560.89 540.85,632.87 "/>
     <polyline class="fil3 str1" points="642.25,1031.49 591.27,961.44 540.85,1033.43 "/>
     <polyline class="fil3 str1" points="642.25,1432.06 591.27,1362.01 540.85,1434 "/>
     <polyline class="fil3 str1" points="642.25,1832.61 591.27,1762.57 540.85,1834.56 "/>
     <polyline class="fil3 str1" points="642.25,2233.18 591.27,2163.13 540.85,2235.12 "/>
     <polyline class="fil3 str1" points="1542.5,-570.75 1491.52,-640.8 1441.1,-568.81 "/>
     <polyline class="fil3 str1" points="1542.5,-170.19 1491.52,-240.24 1441.1,-168.25 "/>
     <polyline class="fil3 str1" points="1542.5,230.37 1491.52,160.32 1441.1,232.31 "/>
     <polyline class="fil3 str1" points="1542.5,630.94 1491.52,560.89 1441.1,632.87 "/>
     <polyline class="fil3 str1" points="1542.5,1031.49 1491.52,961.44 1441.1,1033.43 "/>
     <polyline class="fil3 str1" points="1542.5,1432.06 1491.52,1362.01 1441.1,1434 "/>
     <polyline class="fil3 str1" points="1542.5,1832.61 1491.52,1762.57 1441.1,1834.56 "/>
     <polyline class="fil3 str1" points="1542.5,2233.18 1491.52,2163.13 1441.1,2235.12 "/>
     <polyline class="fil3 str1" points="2442.74,-570.75 2391.76,-640.8 2341.34,-568.81 "/>
     <polyline class="fil3 str1" points="2442.74,-170.19 2391.76,-240.24 2341.34,-168.25 "/>
     <polyline class="fil3 str1" points="2442.74,230.37 2391.76,160.32 2341.34,232.31 "/>
     <polyline class="fil3 str1" points="2442.74,630.94 2391.76,560.89 2341.34,632.87 "/>
     <polyline class="fil3 str1" points="2442.74,1031.49 2391.76,961.44 2341.34,1033.43 "/>
     <polyline class="fil3 str1" points="2442.74,1432.06 2391.76,1362.01 2341.34,1434 "/>
     <polyline class="fil3 str1" points="2442.74,1832.61 2391.76,1762.57 2341.34,1834.56 "/>
     <polyline class="fil3 str1" points="2442.74,2233.18 2391.76,2163.13 2341.34,2235.12 "/>
     <polyline class="fil3 str1" points="3342.99,-570.75 3292.01,-640.8 3241.59,-568.81 "/>
     <polyline class="fil3 str1" points="3342.99,-170.19 3292.01,-240.24 3241.59,-168.25 "/>
     <polyline class="fil3 str1" points="3342.99,230.37 3292.01,160.32 3241.59,232.31 "/>
     <polyline class="fil3 str1" points="3342.99,630.94 3292.01,560.89 3241.59,632.87 "/>
     <polyline class="fil3 str1" points="3342.99,1031.49 3292.01,961.44 3241.59,1033.43 "/>
     <polyline class="fil3 str1" points="3342.99,1432.06 3292.01,1362.01 3241.59,1434 "/>
     <polyline class="fil3 str1" points="3342.99,1832.61 3292.01,1762.57 3241.59,1834.56 "/>
     <polyline class="fil3 str1" points="3342.99,2233.18 3292.01,2163.13 3241.59,2235.12 "/>
    </g>
   </g>
  </g>
  <polygon class="fil4" points="3600,0 3600,1201.75 -0,1201.75 -0,0 "/>
  <g id="_2597549208672">
   <path class="fil5" d="M1661.4 714.48c-8.45,0 -15.81,-2 -21.99,-5.94 -6.27,-3.89 -10.97,-9.31 -14.2,-16.15 -3.23,-6.84 -4.84,-14.58 -4.84,-23.22l0 -166.41 30.77 0 0 166.41c0,4.46 0.85,8.12 2.57,11.02 1.71,2.9 4.27,4.37 7.69,4.37 3.51,0 6.13,-1.47 7.79,-4.37 1.66,-2.9 2.47,-6.56 2.47,-11.02l0 -166.41 30.78 0 0 166.41c0,8.55 -1.67,16.24 -4.99,23.13 -3.32,6.89 -8.12,12.35 -14.3,16.24 -6.22,3.94 -13.48,5.94 -21.75,5.94z"/>
   <polygon id="_1" class="fil5" points="1725.23,712.2 1725.23,502.78 1754.01,502.78 1782.5,611.91 1785.07,621.59 1786.78,621.59 1786.78,502.78 1814.98,502.78 1814.98,712.2 1789.06,712.2 1757.71,603.07 1755.15,593.39 1753.44,593.39 1753.44,712.2 "/>
   <polygon id="_2" class="fil5" points="1837.78,712.2 1837.78,502.78 1868.55,502.78 1868.55,712.2 "/>
   <polygon id="_3" class="fil5" points="1916.13,712.2 1884.22,502.78 1914.14,502.78 1929.53,626.44 1930.67,646.67 1932.38,646.67 1933.52,626.44 1948.91,502.78 1978.82,502.78 1946.91,712.2 "/>
   <polygon id="_4" class="fil5" points="1994.49,712.2 1994.49,502.78 2064.87,502.78 2064.87,534.41 2025.26,534.41 2025.26,590.82 2053.76,590.82 2053.76,621.59 2025.26,621.59 2025.26,680.57 2064.87,680.57 2064.87,712.2 "/>
   <path id="_5" class="fil5" d="M2087.67 712.2l0 -209.43 30.77 0c18.24,0 31.77,5.04 40.61,15.15 8.83,10.16 13.25,25.22 13.25,45.26 0,11.3 -2,21.32 -5.98,30.06 -3.99,8.74 -9.07,15.2 -15.24,19.37l20.94 99.59 -30.78 0 -17.38 -88.33 -5.41 0 0 88.33 -30.77 0zm30.77 -116.82c8.17,0 14.01,-2.66 17.52,-7.93 3.52,-5.27 5.27,-12.96 5.27,-23.13 0,-10.45 -1.71,-18.24 -5.18,-23.37 -3.46,-5.13 -9.35,-7.69 -17.62,-7.69l0 62.12z"/>
   <path id="_6" class="fil5" d="M2226.43 714.48c-10.93,0 -19.57,-2.42 -25.93,-7.22 -6.37,-4.75 -10.88,-11.64 -13.44,-20.52 -2.61,-8.83 -3.94,-19.95 -3.94,-33.24l30.2 -2.85c0,10.83 0.95,19.47 2.8,25.93 1.8,6.46 5.27,9.69 10.31,9.69 4.27,0 7.45,-2 9.5,-5.98 2.04,-3.99 3.04,-9.21 3.04,-15.67 0,-5.61 -1.43,-11.59 -4.32,-17.91 -2.89,-6.27 -6.79,-12.68 -11.63,-19.14 -8.74,-11.59 -15.62,-21.37 -20.66,-29.3 -5.04,-7.93 -9.02,-15.91 -11.97,-23.93 -2.94,-7.98 -4.42,-16.29 -4.42,-24.84 0,-9.4 1.62,-17.81 4.8,-25.22 3.18,-7.41 7.79,-13.25 13.87,-17.48 6.08,-4.22 13.25,-6.31 21.51,-6.31 10.17,0 18.43,2.28 24.79,6.84 6.36,4.56 10.97,10.97 13.91,19.23 2.85,8.26 4.32,18.09 4.32,29.49l-30.2 2.85c0,-20.14 -4.08,-30.2 -12.25,-30.2 -3.8,0 -6.51,1.61 -8.12,4.85 -1.61,3.23 -2.42,8.07 -2.42,14.53 0,5.13 0.9,10.16 2.8,15 1.8,4.89 4.32,9.88 7.55,14.91 3.18,5.03 7.6,11.4 13.3,19.09 6.93,9.31 12.39,17.14 16.34,23.51 3.89,6.36 7.07,12.96 9.45,19.71 2.37,6.79 3.56,13.96 3.56,21.46 0,15.96 -3.52,28.73 -10.54,38.32 -7.03,9.59 -17.76,14.39 -32.2,14.39z"/>
   <polygon id="_7" class="fil5" points="2285.7,712.2 2285.7,502.78 2316.47,502.78 2316.47,712.2 "/>
   <path id="_8" class="fil5" d="M2339.26 712.2l0 -209.43 31.34 0c13.68,0 24.31,3.04 31.91,9.12 7.6,6.08 13.06,16.62 16.48,31.63 3.32,15 5.03,36.37 5.03,64.11 0,27.83 -1.71,49.2 -5.03,64.16 -3.42,14.96 -8.88,25.45 -16.48,31.44 -7.6,5.98 -18.24,8.98 -31.91,8.98l-31.34 0zm30.77 -30.77c7.22,0 12.44,-2.85 15.67,-8.55 3.23,-5.7 5.22,-13.34 5.98,-22.89 0.76,-9.5 1.14,-23.79 1.14,-42.79 0,-18.9 -0.38,-33.15 -1.14,-42.69 -0.76,-9.5 -2.76,-17.05 -5.98,-22.65 -3.23,-5.51 -8.45,-8.31 -15.67,-8.31l0 147.88z"/>
   <path id="_9" class="fil5" d="M2438.85 712.2l31.63 -209.43 37.61 0 31.63 209.43 -29.92 0 -5.7 -42.74 -29.63 0 -5.7 42.74 -29.92 0zm39.89 -75.22l21.09 0 -8.83 -70.38 -0.85 -11.11 -1.71 0 -0.86 11.11 -8.83 70.38z"/>
   <path id="_10" class="fil5" d="M2556.1 712.2l0 -209.43 31.34 0c13.68,0 24.31,3.04 31.91,9.12 7.6,6.08 13.06,16.62 16.48,31.63 3.32,15 5.03,36.37 5.03,64.11 0,27.83 -1.71,49.2 -5.03,64.16 -3.42,14.96 -8.88,25.45 -16.48,31.44 -7.6,5.98 -18.24,8.98 -31.91,8.98l-31.34 0zm30.77 -30.77c7.22,0 12.44,-2.85 15.67,-8.55 3.23,-5.7 5.22,-13.34 5.98,-22.89 0.76,-9.5 1.14,-23.79 1.14,-42.79 0,-18.9 -0.38,-33.15 -1.14,-42.69 -0.76,-9.5 -2.76,-17.05 -5.98,-22.65 -3.23,-5.51 -8.45,-8.31 -15.67,-8.31l0 147.88z"/>
   <g>
    <path class="fil5" d="M1183.78 701.37l31.46 40.56 -62.67 0 -5.54 -7.26c-13.93,6.88 -28.52,10.32 -43.83,10.32 -26.8,0 -49.54,-9.4 -68.16,-28.19 -18.62,-18.79 -27.93,-41.73 -27.93,-68.75 0,-26.97 9.31,-49.79 27.93,-68.54 18.63,-18.71 41.36,-28.06 68.16,-28.06 26.84,0 49.62,9.35 68.24,28.06 18.62,18.75 27.94,41.57 27.94,68.54 0,19.59 -5.2,37.33 -15.61,53.31zm-80.57 -78.02c-5.33,0 -9.77,1.85 -13.3,5.58 -3.52,3.73 -5.29,8.43 -5.29,14.09 0,5.62 1.76,10.32 5.29,14.05 3.52,3.73 7.97,5.58 13.3,5.58 5.37,0 9.86,-1.85 13.38,-5.58 3.52,-3.73 5.28,-8.43 5.28,-14.05 0,-5.66 -1.76,-10.36 -5.28,-14.09 -3.52,-3.73 -8.01,-5.58 -13.38,-5.58z"/>
    <path class="fil5" d="M1479.18 520.61l-34.81 66.23c-10.15,-3.52 -21.35,-5.29 -33.64,-5.29 -17.62,0 -26.43,4.78 -26.43,14.39 0,4.57 2.43,8.14 7.38,10.74 4.91,2.56 11.91,3.86 21.02,3.86 12.29,0 22.86,-2.22 31.67,-6.63l34.81 71.01c-9.85,5.91 -21.72,10.61 -35.65,14.13 -13.93,3.52 -27.22,5.29 -39.93,5.29 -31.88,0 -57.26,-9.19 -76.13,-27.56 -18.87,-18.41 -28.31,-41.06 -28.31,-67.91 0,-28.44 9.81,-51.89 29.49,-70.34 19.63,-18.5 44.63,-27.72 74.96,-27.72 13.09,0 26.63,1.76 40.6,5.33 13.97,3.57 25.63,8.39 34.98,14.47z"/>
    <path class="fil5" d="M1109.99 523.12c-5.24,4.59 -13.21,4.06 -17.8,-1.19 -4.59,-5.24 -4.06,-13.22 1.19,-17.8l148.31 -129.89c4.33,-3.78 10.51,-4.08 15.11,-1.13l141.76 81.5c6.04,3.47 8.11,11.17 4.65,17.21 -3.47,6.04 -11.17,8.11 -17.21,4.65l-134.47 -77.31 -141.54 123.96z"/>
    <path class="fil6" d="M1111.19 771.49l135.15 0c0,29.02 -60.51,52.54 -135.15,52.54 -74.64,0 -135.15,-23.52 -135.15,-52.54l135.15 0z"/>
    <path class="fil6" d="M1397 715.63l135.15 0c0,29.02 -60.51,52.54 -135.15,52.54 -74.64,0 -135.15,-23.52 -135.15,-52.54l135.15 0z"/>
   </g>
  </g>
 </g>
</svg>
