<?xml version="1.0" encoding="UTF-8"?>
<!DOCTYPE svg PUBLIC "-//W3C//DTD SVG 1.1//EN" "http://www.w3.org/Graphics/SVG/1.1/DTD/svg11.dtd">
<!-- Creator: CorelDRAW -->
<svg xmlns="http://www.w3.org/2000/svg" xml:space="preserve" width="3.6in" height="3.6in" version="1.1" style="shape-rendering:geometricPrecision; text-rendering:geometricPrecision; image-rendering:optimizeQuality; fill-rule:evenodd; clip-rule:evenodd"
viewBox="0 0 3600 3600"
 xmlns:xlink="http://www.w3.org/1999/xlink"
 xmlns:xodm="http://www.corel.com/coreldraw/odm/2003">
 <defs>
  <style type="text/css">
   <![CDATA[
    .fil3 {fill:#FEFEFE}
    .fil2 {fill:#FEFEFE}
    .fil0 {fill:#ED3237}
    .fil1 {fill:#ED3237;fill-rule:nonzero}
   ]]>
  </style>
 </defs>
 <g id="Layer_x0020_1">
  <metadata id="CorelCorpID_0Corel-Layer"/>
  <path class="fil0" d="M2403.6 2168.48l-269.54 -258.72c-67.59,70.42 -1.71,243.33 147.15,386.22 148.86,142.89 324.33,201.63 391.92,131.22l-269.54 -258.72z"/>
  <path class="fil1" d="M2102.85 2370.16c-154.59,-310.42 -242.63,-668.41 -272.01,-1128.51 -0.61,-9.71 -15.27,-9.33 -16,-1.53 -40.35,423.17 -108.42,787.61 -271.94,1130.04 -4.87,10.2 -2.69,20.08 7.67,20.07l544.57 0c7.72,0.26 13.07,-9.3 7.72,-20.07z"/>
  <path class="fil1" d="M2397.09 1219.22c24.46,4.87 40.34,28.67 35.48,53.13 -4.87,24.46 -28.67,40.34 -53.13,35.48 -113.96,-22.7 -220.92,-61.71 -320,-118.86 -84.24,-48.58 -162.31,-110.09 -233.65,-185.59 -72.46,90.11 -155.19,170.52 -246.49,232.49 -95.72,64.96 -200.85,109.61 -313.51,124.02 -24.65,3.12 -47.19,-14.35 -50.3,-39.01 -3.12,-24.65 14.35,-47.18 39.01,-50.3 97.72,-12.5 189.81,-51.83 274.32,-109.19 96.34,-65.38 183.02,-154.29 257.39,-254 2.14,-3.07 4.71,-5.93 7.69,-8.48 18.9,-16.18 47.35,-13.96 63.54,4.94 74.39,86.78 156.94,155.26 246.84,207.11 89.79,51.79 187.69,87.33 292.83,108.27z"/>
  <path class="fil1" d="M2369.46 1390.13c-2.35,-5.17 19.26,-28.3 26.74,-23.78 12.41,-0.32 22.74,9.49 23.06,21.89l14.18 555.29c0.32,12.41 -9.49,22.74 -21.89,23.06 -12.4,0.31 -22.74,-9.49 -23.06,-21.89l-19.03 -554.56z"/>
  <path class="fil1" d="M3183.53 2356.76l-212.67 -93.45c8.71,-32.2 11.74,-67.26 9.07,-105.32 -3.82,-54.56 -20.54,-80.8 -50.29,-78.72 -14.16,0.99 -24.67,9.3 -31.65,25.19 -6.86,15.75 -9.37,37.73 -7.39,65.92 2.67,38.06 11.84,70.31 27.39,96.64l-212.37 123.22c-20.45,-29.24 -37.58,-64.99 -51.51,-107.35 -13.93,-42.36 -22.28,-83.16 -25.03,-122.52 -6.91,-98.72 16.03,-179.3 68.83,-241.74 52.93,-62.45 121.03,-96.59 204.17,-102.41 88.07,-6.17 162.81,19.14 224.24,76.06 61.54,56.78 95.54,132.2 102.12,226.12 2.84,40.53 0.32,82.87 -7.69,126.9 -8.01,44.03 -20.42,81.19 -37.23,111.47z"/>
  <g>
   <path class="fil0" d="M1402.51 2229.41l-349.33 132.47c34.61,91.27 219.07,105.94 412,32.78 192.94,-73.17 321.28,-206.46 286.67,-297.73l-349.33 132.48z"/>
   <path id="_1" class="fil2" d="M1402.51 2229.41l-349.33 132.47c34.61,91.27 219.07,105.94 412,32.78 192.94,-73.17 321.28,-206.46 286.67,-297.73l-349.33 132.48zm-358.71 107.58l349.33 -132.47 349.33 -132.48 24.81 -9.41 9.45 24.93c21.27,56.09 -4.65,122.1 -63.73,183.46 -54.44,56.54 -138.23,110.53 -238.45,148.53l-0.01 0c-100.21,38 -198.67,53.15 -276.82,46.94 -84.93,-6.76 -148.13,-39.04 -169.44,-95.24l-9.41 -24.81 24.93 -9.45z"/>
  </g>
  <g>
   <path class="fil1" d="M1515.33 2011.09l116.44 77.81 -162.19 54.11 -20.59 -14c-30.1,29.83 -64.91,51.33 -104.54,64.56 -69.37,23.14 -136.32,18.46 -200.74,-14.1 -64.43,-32.55 -108.34,-83.89 -131.67,-153.8 -23.29,-69.81 -18.89,-136.9 13.13,-201.51 32.04,-64.5 82.81,-108.34 152.17,-131.48 69.48,-23.18 136.5,-18.64 200.86,13.7 64.39,32.44 108.19,83.46 131.48,153.26 16.91,50.7 18.77,101.11 5.65,151.45zm-275.91 -132.34c-13.78,4.6 -23.7,13.22 -29.59,25.92 -5.9,12.7 -6.4,26.38 -1.51,41.04 4.85,14.55 13.47,25.19 25.81,31.8 12.34,6.62 25.44,7.56 39.23,2.96 13.89,-4.64 23.92,-13.29 29.81,-25.99 5.89,-12.7 6.39,-26.38 1.54,-40.93 -4.89,-14.66 -13.5,-25.3 -25.85,-31.91 -12.34,-6.62 -25.55,-7.52 -39.45,-2.89z"/>
   <path id="_1_0" class="fil3" d="M1545.28 1999.14l101.28 67.68 45.09 30.13 -51.44 17.17 -162.19 54.11 -12.46 4.16 -10.87 -7.39 -3.17 -2.16c-11.79,10.13 -24.21,19.22 -37.27,27.28 -19.21,11.87 -39.67,21.42 -61.36,28.66 -38.1,12.71 -75.6,17.78 -112.45,15.19 -37.04,-2.59 -73.29,-12.85 -108.71,-30.75 -35.37,-17.87 -65.2,-41 -89.46,-69.33 -24.19,-28.25 -42.68,-61.54 -55.44,-99.79 -12.76,-38.26 -17.94,-75.86 -15.53,-112.81 2.43,-37.13 12.43,-73.44 30.01,-108.91 17.61,-35.45 40.47,-65.31 68.54,-89.57 28.03,-24.22 61.06,-42.68 99.05,-55.35 38.14,-12.72 75.69,-17.83 112.59,-15.32 36.94,2.52 73.15,12.68 108.58,30.48l0.11 0c35.35,17.81 65.14,40.83 89.38,69.08 24.14,28.13 42.58,61.3 55.33,99.5 9.26,27.76 14.41,55.55 15.44,83.36 0.8,21.57 -0.88,43.09 -5.04,64.58zm-29.96 11.95l116.44 77.81 -162.19 54.11 -20.59 -14c-30.1,29.83 -64.91,51.33 -104.54,64.56 -69.37,23.14 -136.32,18.46 -200.74,-14.1 -64.43,-32.55 -108.34,-83.89 -131.67,-153.8 -23.29,-69.81 -18.89,-136.9 13.13,-201.51 32.04,-64.5 82.81,-108.34 152.17,-131.48 69.48,-23.18 136.5,-18.64 200.86,13.7 64.39,32.44 108.19,83.46 131.48,153.26 16.91,50.7 18.77,101.11 5.65,151.45zm-275.91 -132.34c-13.78,4.6 -23.7,13.22 -29.59,25.92 -5.9,12.7 -6.4,26.38 -1.51,41.04 4.85,14.55 13.47,25.19 25.81,31.8 12.34,6.62 25.44,7.56 39.23,2.96 13.89,-4.64 23.92,-13.29 29.81,-25.99 5.89,-12.7 6.39,-26.38 1.54,-40.93 -4.89,-14.66 -13.5,-25.3 -25.85,-31.91 -12.34,-6.62 -25.55,-7.52 -39.45,-2.89zm8.33 25.21c-3.44,1.15 -6.33,2.73 -8.62,4.74 -2.06,1.8 -3.78,4.18 -5.14,7.11 -1.48,3.2 -2.29,6.4 -2.41,9.58 -0.13,3.64 0.52,7.61 1.94,11.88 1.41,4.24 3.26,7.76 5.52,10.55 2.09,2.57 4.63,4.67 7.59,6.25l0.1 0c2.78,1.49 5.59,2.35 8.41,2.56 3.12,0.23 6.39,-0.22 9.8,-1.34l-0.01 -0.03c3.51,-1.17 6.49,-2.81 8.89,-4.9l0.05 0.06c2.08,-1.83 3.81,-4.2 5.15,-7.09 1.48,-3.19 2.28,-6.39 2.4,-9.55 0.14,-3.7 -0.5,-7.68 -1.9,-11.89 -1.39,-4.18 -3.25,-7.7 -5.54,-10.54 -2.05,-2.53 -4.62,-4.63 -7.7,-6.28 -2.77,-1.48 -5.57,-2.33 -8.36,-2.54 -3.17,-0.23 -6.53,0.25 -10.05,1.42l-0.1 0z"/>
  </g>
 </g>
</svg>
