<?xml version="1.0" encoding="UTF-8"?>
<!DOCTYPE svg PUBLIC "-//W3C//DTD SVG 1.1//EN" "http://www.w3.org/Graphics/SVG/1.1/DTD/svg11.dtd">
<!-- Creator: CorelDRAW -->
<svg xmlns="http://www.w3.org/2000/svg" xml:space="preserve" width="2.67757in" height="0.728402in" version="1.1" style="shape-rendering:geometricPrecision; text-rendering:geometricPrecision; image-rendering:optimizeQuality; fill-rule:evenodd; clip-rule:evenodd"
viewBox="0 0 2483.22 675.53"
 xmlns:xlink="http://www.w3.org/1999/xlink"
 xmlns:xodm="http://www.corel.com/coreldraw/odm/2003">
 <defs>
  <style type="text/css">
   <![CDATA[
    .fil1 {fill:#5C5CB8}
    .fil0 {fill:#5C5CB8;fill-rule:nonzero}
   ]]>
  </style>
 </defs>
 <g id="Layer_x0020_1">
  <metadata id="CorelCorpID_0Corel-Layer"/>
  <path class="fil0" d="M1022.26 512.14c-12.61,0 -23.59,-2.98 -32.8,-8.85 -9.35,-5.81 -16.36,-13.88 -21.18,-24.08 -4.82,-10.2 -7.23,-21.75 -7.23,-34.64l0 -248.2 45.9 0 0 248.2c0,6.66 1.27,12.11 3.83,16.43 2.55,4.32 6.38,6.52 11.48,6.52 5.24,0 9.14,-2.19 11.61,-6.52 2.48,-4.32 3.68,-9.77 3.68,-16.43l0 -248.2 45.9 0 0 248.2c0,12.75 -2.48,24.22 -7.44,34.49 -4.96,10.27 -12.11,18.42 -21.32,24.23 -9.28,5.88 -20.12,8.85 -32.44,8.85z"/>
  <polygon id="_1" class="fil0" points="1117.46,508.74 1117.46,196.36 1160.39,196.36 1202.89,359.14 1206.71,373.59 1209.26,373.59 1209.26,196.36 1251.34,196.36 1251.34,508.74 1212.67,508.74 1165.92,345.97 1162.09,331.51 1159.54,331.51 1159.54,508.74 "/>
  <polygon id="_2" class="fil0" points="1285.34,508.74 1285.34,196.36 1331.24,196.36 1331.24,508.74 "/>
  <polygon id="_3" class="fil0" points="1402.22,508.74 1354.62,196.36 1399.24,196.36 1422.19,380.82 1423.89,410.99 1426.44,410.99 1428.14,380.82 1451.09,196.36 1495.72,196.36 1448.12,508.74 "/>
  <polygon id="_4" class="fil0" points="1519.09,508.74 1519.09,196.36 1624.07,196.36 1624.07,243.54 1564.99,243.54 1564.99,327.69 1607.49,327.69 1607.49,373.59 1564.99,373.59 1564.99,461.57 1624.07,461.57 1624.07,508.74 "/>
  <path id="_5" class="fil0" d="M1658.07 508.74l0 -312.38 45.9 0c27.2,0 47.39,7.51 60.56,22.6 13.18,15.16 19.76,37.61 19.76,67.5 0,16.86 -2.98,31.8 -8.93,44.84 -5.95,13.03 -13.53,22.67 -22.74,28.9l31.24 148.54 -45.9 0 -25.92 -131.75 -8.08 0 0 131.75 -45.9 0zm45.9 -174.25c12.18,0 20.9,-3.97 26.14,-11.83 5.24,-7.86 7.86,-19.34 7.86,-34.5 0,-15.58 -2.55,-27.2 -7.72,-34.85 -5.17,-7.65 -13.96,-11.48 -26.28,-11.48l0 92.65z"/>
  <path id="_6" class="fil0" d="M1865.05 512.14c-16.29,0 -29.18,-3.61 -38.67,-10.77 -9.49,-7.08 -16.22,-17.35 -20.05,-30.6 -3.9,-13.18 -5.88,-29.75 -5.88,-49.58l45.05 -4.25c0,16.15 1.42,29.04 4.18,38.67 2.69,9.63 7.86,14.45 15.37,14.45 6.38,0 11.12,-2.98 14.17,-8.93 3.05,-5.95 4.53,-13.74 4.53,-23.38 0,-8.36 -2.13,-17.28 -6.45,-26.71 -4.32,-9.35 -10.13,-18.91 -17.35,-28.55 -13.03,-17.28 -23.3,-31.88 -30.81,-43.71 -7.51,-11.83 -13.46,-23.73 -17.85,-35.7 -4.39,-11.9 -6.59,-24.3 -6.59,-37.05 0,-14.03 2.41,-26.56 7.16,-37.62 4.74,-11.05 11.61,-19.76 20.68,-26.07 9.07,-6.31 19.76,-9.42 32.09,-9.42 15.16,0 27.48,3.4 36.97,10.2 9.49,6.8 16.36,16.36 20.76,28.69 4.25,12.33 6.44,26.99 6.44,43.99l-45.05 4.25c0,-30.04 -6.09,-45.05 -18.28,-45.05 -5.67,0 -9.7,2.41 -12.11,7.23 -2.41,4.82 -3.61,12.04 -3.61,21.68 0,7.65 1.34,15.16 4.18,22.38 2.69,7.3 6.45,14.73 11.26,22.24 4.75,7.51 11.33,17 19.83,28.47 10.34,13.89 18.49,25.57 24.36,35.06 5.81,9.49 10.56,19.34 14.1,29.4 3.54,10.13 5.31,20.83 5.31,32.02 0,23.8 -5.24,42.85 -15.73,57.16 -10.48,14.31 -26.49,21.46 -48.02,21.46z"/>
  <polygon id="_7" class="fil0" points="1953.45,508.74 1953.45,196.36 1999.35,196.36 1999.35,508.74 "/>
  <path id="_8" class="fil0" d="M2033.35 508.74l0 -312.38 46.75 0c20.4,0 36.27,4.53 47.6,13.6 11.33,9.07 19.48,24.79 24.58,47.17 4.96,22.39 7.51,54.26 7.51,95.63 0,41.51 -2.55,73.39 -7.51,95.7 -5.1,22.31 -13.25,37.97 -24.58,46.89 -11.33,8.93 -27.2,13.39 -47.6,13.39l-46.75 0zm45.9 -45.9c10.77,0 18.56,-4.25 23.38,-12.75 4.82,-8.5 7.79,-19.91 8.93,-34.14 1.13,-14.17 1.7,-35.49 1.7,-63.82 0,-28.19 -0.57,-49.45 -1.7,-63.68 -1.14,-14.17 -4.11,-25.43 -8.93,-33.79 -4.82,-8.22 -12.61,-12.4 -23.38,-12.4l0 220.58z"/>
  <path id="_9" class="fil0" d="M2181.89 508.74l47.17 -312.38 56.1 0 47.18 312.38 -44.63 0 -8.5 -63.75 -44.2 0 -8.5 63.75 -44.63 0zm59.5 -112.2l31.45 0 -13.18 -104.97 -1.27 -16.58 -2.55 0 -1.28 16.58 -13.17 104.97z"/>
  <path id="_10" class="fil0" d="M2356.78 508.74l0 -312.38 46.75 0c20.4,0 36.27,4.53 47.6,13.6 11.33,9.07 19.48,24.79 24.58,47.17 4.96,22.39 7.51,54.26 7.51,95.63 0,41.51 -2.55,73.39 -7.51,95.7 -5.1,22.31 -13.25,37.97 -24.58,46.89 -11.33,8.93 -27.2,13.39 -47.6,13.39l-46.75 0zm45.9 -45.9c10.77,0 18.56,-4.25 23.38,-12.75 4.82,-8.5 7.79,-19.91 8.93,-34.14 1.13,-14.17 1.7,-35.49 1.7,-63.82 0,-28.19 -0.57,-49.45 -1.7,-63.68 -1.14,-14.17 -4.11,-25.43 -8.93,-33.79 -4.82,-8.22 -12.61,-12.4 -23.38,-12.4l0 220.58z"/>
  <g id="_2597630103216">
   <path class="fil0" d="M309.88 492.58l46.92 60.5 -93.47 0 -8.26 -10.82c-20.77,10.26 -42.54,15.39 -65.38,15.39 -39.98,0 -73.89,-14.01 -101.67,-42.04 -27.78,-28.03 -41.67,-62.25 -41.67,-102.54 0,-40.23 13.89,-74.26 41.67,-102.23 27.78,-27.9 61.69,-41.85 101.67,-41.85 40.04,0 74.01,13.95 101.79,41.85 27.78,27.97 41.67,62 41.67,102.23 0,29.22 -7.76,55.68 -23.27,79.52zm-120.18 -116.37c-7.95,0 -14.58,2.75 -19.83,8.32 -5.25,5.57 -7.88,12.57 -7.88,21.02 0,8.38 2.63,15.39 7.88,20.96 5.25,5.57 11.89,8.32 19.83,8.32 8.01,0 14.7,-2.75 19.96,-8.32 5.25,-5.57 7.88,-12.57 7.88,-20.96 0,-8.45 -2.63,-15.46 -7.88,-21.02 -5.26,-5.57 -11.95,-8.32 -19.96,-8.32z"/>
   <path class="fil0" d="M750.47 222.96l-51.93 98.79c-15.14,-5.25 -31.84,-7.88 -50.18,-7.88 -26.28,0 -39.42,7.13 -39.42,21.46 0,6.82 3.63,12.14 11.01,16.02 7.32,3.82 17.77,5.75 31.34,5.75 18.33,0 34.1,-3.32 47.24,-9.88l51.93 105.92c-14.7,8.82 -32.41,15.83 -53.18,21.09 -20.77,5.25 -40.61,7.88 -59.56,7.88 -47.55,0 -85.4,-13.7 -113.55,-41.11 -28.15,-27.46 -42.23,-61.25 -42.23,-101.29 0,-42.42 14.64,-77.39 43.98,-104.92 29.28,-27.59 66.57,-41.35 111.8,-41.35 19.52,0 39.73,2.63 60.56,7.95 20.83,5.32 38.22,12.51 52.18,21.59z"/>
   <path class="fil0" d="M199.8 226.71c-7.82,6.84 -19.71,6.05 -26.55,-1.77 -6.84,-7.82 -6.05,-19.71 1.77,-26.55l221.2 -193.74c6.45,-5.64 15.67,-6.09 22.55,-1.68l211.45 121.57c9,5.17 12.1,16.66 6.93,25.66 -5.17,9 -16.66,12.1 -25.66,6.93l-200.58 -115.32 -211.11 184.89z"/>
   <path class="fil1" d="M201.58 597.16l201.58 0c0,43.28 -90.25,78.37 -201.58,78.37 -111.33,0 -201.58,-35.08 -201.58,-78.37l201.58 0z"/>
   <path class="fil1" d="M627.9 513.86l201.58 0c0,43.28 -90.25,78.37 -201.58,78.37 -111.33,0 -201.59,-35.08 -201.59,-78.37l201.59 0z"/>
  </g>
 </g>
</svg>
