<?xml version="1.0" encoding="UTF-8"?>
<!DOCTYPE svg PUBLIC "-//W3C//DTD SVG 1.1//EN" "http://www.w3.org/Graphics/SVG/1.1/DTD/svg11.dtd">
<!-- Creator: CorelDRAW -->
<svg xmlns="http://www.w3.org/2000/svg" xml:space="preserve" width="0.894406in" height="1.06781in" version="1.1" style="shape-rendering:geometricPrecision; text-rendering:geometricPrecision; image-rendering:optimizeQuality; fill-rule:evenodd; clip-rule:evenodd"
viewBox="0 0 286.23 341.72"
 xmlns:xlink="http://www.w3.org/1999/xlink"
 xmlns:xodm="http://www.corel.com/coreldraw/odm/2003">
 <defs>
  <style type="text/css">
   <![CDATA[
    .fil1 {fill:#5C5CB8}
    .fil0 {fill:#5C5CB8;fill-rule:nonzero}
   ]]>
  </style>
 </defs>
 <g id="Layer_x0020_1">
  <metadata id="CorelCorpID_0Corel-Layer"/>
  <path class="fil0" d="M11.51 341.72c-2.37,0 -4.43,-0.56 -6.17,-1.66 -1.76,-1.09 -3.08,-2.61 -3.98,-4.53 -0.91,-1.92 -1.36,-4.09 -1.36,-6.51l0 -46.67 8.63 0 0 46.67c0,1.25 0.24,2.28 0.72,3.09 0.48,0.81 1.2,1.22 2.16,1.22 0.99,0 1.72,-0.41 2.18,-1.22 0.47,-0.81 0.69,-1.84 0.69,-3.09l0 -46.67 8.63 0 0 46.67c0,2.4 -0.47,4.55 -1.4,6.49 -0.93,1.93 -2.28,3.46 -4.01,4.56 -1.74,1.1 -3.78,1.66 -6.1,1.66z"/>
  <polygon id="_1" class="fil0" points="29.41,341.08 29.41,282.34 37.48,282.34 45.47,312.95 46.19,315.67 46.67,315.67 46.67,282.34 54.58,282.34 54.58,341.08 47.31,341.08 38.52,310.47 37.8,307.75 37.32,307.75 37.32,341.08 "/>
  <polygon id="_2" class="fil0" points="60.98,341.08 60.98,282.34 69.61,282.34 69.61,341.08 "/>
  <polygon id="_3" class="fil0" points="82.96,341.08 74,282.34 82.4,282.34 86.71,317.03 87.03,322.7 87.51,322.7 87.83,317.03 92.15,282.34 100.54,282.34 91.59,341.08 "/>
  <polygon id="_4" class="fil0" points="104.93,341.08 104.93,282.34 124.67,282.34 124.67,291.21 113.56,291.21 113.56,307.04 121.56,307.04 121.56,315.67 113.56,315.67 113.56,332.21 124.67,332.21 124.67,341.08 "/>
  <path id="_5" class="fil0" d="M131.07 341.08l0 -58.74 8.63 0c5.11,0 8.91,1.41 11.39,4.25 2.48,2.85 3.72,7.07 3.72,12.69 0,3.17 -0.56,5.98 -1.68,8.43 -1.12,2.45 -2.54,4.26 -4.27,5.43l5.87 27.93 -8.63 0 -4.87 -24.78 -1.52 0 0 24.78 -8.63 0zm8.63 -32.77c2.29,0 3.93,-0.75 4.91,-2.22 0.99,-1.48 1.48,-3.64 1.48,-6.49 0,-2.93 -0.48,-5.11 -1.45,-6.55 -0.97,-1.44 -2.62,-2.16 -4.94,-2.16l0 17.42z"/>
  <path id="_6" class="fil0" d="M169.99 341.72c-3.06,0 -5.49,-0.68 -7.27,-2.02 -1.79,-1.33 -3.05,-3.26 -3.77,-5.76 -0.73,-2.48 -1.1,-5.59 -1.1,-9.32l8.47 -0.8c0,3.04 0.27,5.46 0.79,7.27 0.51,1.81 1.48,2.72 2.89,2.72 1.2,0 2.09,-0.56 2.66,-1.68 0.57,-1.12 0.85,-2.58 0.85,-4.4 0,-1.57 -0.4,-3.25 -1.21,-5.02 -0.81,-1.76 -1.91,-3.56 -3.26,-5.37 -2.45,-3.25 -4.38,-5.99 -5.79,-8.22 -1.41,-2.22 -2.53,-4.46 -3.36,-6.71 -0.83,-2.24 -1.24,-4.57 -1.24,-6.97 0,-2.64 0.45,-5 1.35,-7.07 0.89,-2.08 2.18,-3.72 3.89,-4.9 1.7,-1.19 3.72,-1.77 6.03,-1.77 2.85,0 5.17,0.64 6.95,1.92 1.79,1.28 3.08,3.08 3.9,5.39 0.8,2.32 1.21,5.07 1.21,8.27l-8.47 0.8c0,-5.65 -1.15,-8.47 -3.44,-8.47 -1.07,0 -1.83,0.45 -2.28,1.36 -0.45,0.91 -0.68,2.26 -0.68,4.08 0,1.44 0.25,2.85 0.78,4.21 0.51,1.37 1.21,2.77 2.12,4.18 0.89,1.41 2.13,3.2 3.73,5.35 1.94,2.61 3.48,4.81 4.58,6.59 1.09,1.79 1.98,3.64 2.65,5.53 0.67,1.91 1,3.92 1,6.02 0,4.48 -0.99,8.06 -2.96,10.75 -1.97,2.69 -4.98,4.04 -9.03,4.04z"/>
  <polygon id="_7" class="fil0" points="186.61,341.08 186.61,282.34 195.24,282.34 195.24,341.08 "/>
  <path id="_8" class="fil0" d="M201.63 341.08l0 -58.74 8.79 0c3.84,0 6.82,0.85 8.95,2.56 2.13,1.7 3.66,4.66 4.62,8.87 0.93,4.21 1.41,10.2 1.41,17.98 0,7.81 -0.48,13.8 -1.41,17.99 -0.96,4.2 -2.49,7.14 -4.62,8.82 -2.13,1.68 -5.12,2.52 -8.95,2.52l-8.79 0zm8.63 -8.63c2.02,0 3.49,-0.8 4.39,-2.4 0.91,-1.6 1.47,-3.74 1.68,-6.42 0.21,-2.66 0.32,-6.67 0.32,-12 0,-5.3 -0.11,-9.3 -0.32,-11.97 -0.21,-2.66 -0.77,-4.78 -1.68,-6.35 -0.9,-1.55 -2.37,-2.33 -4.39,-2.33l0 41.48z"/>
  <path id="_9" class="fil0" d="M229.57 341.08l8.87 -58.74 10.55 0 8.87 58.74 -8.39 0 -1.6 -11.99 -8.31 0 -1.6 11.99 -8.39 0zm11.19 -21.1l5.91 0 -2.48 -19.74 -0.24 -3.12 -0.48 0 -0.24 3.12 -2.48 19.74z"/>
  <path id="_10" class="fil0" d="M262.45 341.08l0 -58.74 8.79 0c3.84,0 6.82,0.85 8.95,2.56 2.13,1.7 3.66,4.66 4.62,8.87 0.93,4.21 1.41,10.2 1.41,17.98 0,7.81 -0.48,13.8 -1.41,17.99 -0.96,4.2 -2.49,7.14 -4.62,8.82 -2.13,1.68 -5.12,2.52 -8.95,2.52l-8.79 0zm8.63 -8.63c2.02,0 3.49,-0.8 4.39,-2.4 0.91,-1.6 1.47,-3.74 1.68,-6.42 0.21,-2.66 0.32,-6.67 0.32,-12 0,-5.3 -0.11,-9.3 -0.32,-11.97 -0.21,-2.66 -0.77,-4.78 -1.68,-6.35 -0.9,-1.55 -2.37,-2.33 -4.39,-2.33l0 41.48z"/>
  <g id="_2597639187584">
   <path class="fil0" d="M106.93 169.97l16.19 20.88 -32.25 0 -2.85 -3.73c-7.17,3.54 -14.68,5.31 -22.56,5.31 -13.8,0 -25.5,-4.84 -35.08,-14.51 -9.59,-9.67 -14.38,-21.48 -14.38,-35.38 0,-13.88 4.79,-25.63 14.38,-35.28 9.59,-9.63 21.29,-14.44 35.08,-14.44 13.82,0 25.54,4.81 35.12,14.44 9.59,9.65 14.38,21.39 14.38,35.28 0,10.08 -2.68,19.21 -8.03,27.44zm-41.47 -40.15c-2.74,0 -5.03,0.95 -6.84,2.87 -1.81,1.92 -2.72,4.34 -2.72,7.25 0,2.89 0.91,5.31 2.72,7.23 1.81,1.92 4.1,2.87 6.84,2.87 2.76,0 5.07,-0.95 6.89,-2.87 1.81,-1.92 2.72,-4.34 2.72,-7.23 0,-2.92 -0.91,-5.33 -2.72,-7.25 -1.81,-1.92 -4.12,-2.87 -6.89,-2.87z"/>
   <path class="fil0" d="M258.96 76.94l-17.92 34.09c-5.22,-1.81 -10.99,-2.72 -17.31,-2.72 -9.07,0 -13.6,2.46 -13.6,7.4 0,2.35 1.25,4.19 3.8,5.53 2.53,1.32 6.13,1.99 10.82,1.99 6.33,0 11.77,-1.14 16.3,-3.41l17.92 36.55c-5.07,3.04 -11.18,5.46 -18.35,7.28 -7.17,1.81 -14.01,2.72 -20.55,2.72 -16.41,0 -29.47,-4.73 -39.18,-14.18 -9.72,-9.48 -14.57,-21.14 -14.57,-34.95 0,-14.64 5.05,-26.71 15.18,-36.21 10.1,-9.52 22.97,-14.27 38.58,-14.27 6.74,0 13.71,0.91 20.9,2.74 7.19,1.84 13.19,4.32 18,7.45z"/>
   <path class="fil0" d="M68.94 78.23c-2.7,2.36 -6.8,2.09 -9.16,-0.61 -2.36,-2.7 -2.09,-6.8 0.61,-9.16l76.33 -66.85c2.23,-1.95 5.41,-2.1 7.78,-0.58l72.96 41.95c3.11,1.78 4.18,5.75 2.39,8.86 -1.78,3.11 -5.75,4.18 -8.85,2.39l-69.21 -39.79 -72.85 63.8z"/>
   <path class="fil1" d="M69.56 206.06l69.56 0c0,14.94 -31.14,27.04 -69.56,27.04 -38.42,0 -69.56,-12.11 -69.56,-27.04l69.56 0z"/>
   <path class="fil1" d="M216.67 177.32l69.56 0c0,14.94 -31.14,27.04 -69.56,27.04 -38.42,0 -69.56,-12.11 -69.56,-27.04l69.56 0z"/>
  </g>
 </g>
</svg>
