<?xml version="1.0" encoding="UTF-8"?>
<!DOCTYPE svg PUBLIC "-//W3C//DTD SVG 1.1//EN" "http://www.w3.org/Graphics/SVG/1.1/DTD/svg11.dtd">
<!-- Creator: CorelDRAW -->
<svg xmlns="http://www.w3.org/2000/svg" xml:space="preserve" width="1.13878in" height="1.13878in" version="1.1" style="shape-rendering:geometricPrecision; text-rendering:geometricPrecision; image-rendering:optimizeQuality; fill-rule:evenodd; clip-rule:evenodd"
viewBox="0 0 1138.78 1138.78"
 xmlns:xlink="http://www.w3.org/1999/xlink"
 xmlns:xodm="http://www.corel.com/coreldraw/odm/2003">
 <defs>
  <style type="text/css">
   <![CDATA[
    .fil0 {fill:none}
    .fil2 {fill:#FEFEFE}
    .fil1 {fill:#FEFEFE;fill-rule:nonzero}
   ]]>
  </style>
 </defs>
 <g id="Layer_x0020_1">
  <metadata id="CorelCorpID_0Corel-Layer"/>
  <rect class="fil0" width="1138.78" height="1138.78"/>
  <g id="_2202477910272">
   <g>
    <path class="fil1" d="M457.13 595.89l50.59 65.24 -100.79 0 -8.91 -11.67c-22.39,11.06 -45.87,16.59 -70.5,16.59 -43.11,0 -79.67,-15.11 -109.62,-45.33 -29.95,-30.22 -44.93,-67.12 -44.93,-110.57 0,-43.37 14.98,-80.07 44.93,-110.23 29.95,-30.09 66.52,-45.13 109.62,-45.13 43.18,0 79.81,15.04 109.76,45.13 29.95,30.15 44.93,66.85 44.93,110.23 0,31.51 -8.37,60.04 -25.09,85.74zm-129.59 -125.48c-8.57,0 -15.72,2.97 -21.39,8.97 -5.67,6 -8.5,13.56 -8.5,22.67 0,9.04 2.83,16.6 8.5,22.6 5.67,6 12.82,8.97 21.39,8.97 8.63,0 15.85,-2.97 21.52,-8.97 5.67,-6 8.5,-13.56 8.5,-22.6 0,-9.11 -2.83,-16.66 -8.5,-22.67 -5.67,-6 -12.89,-8.97 -21.52,-8.97z"/>
    <path class="fil1" d="M932.2 305.17l-55.99 106.52c-16.33,-5.67 -34.34,-8.5 -54.1,-8.5 -28.33,0 -42.5,7.69 -42.5,23.14 0,7.35 3.91,13.09 11.87,17.27 7.89,4.12 19.16,6.21 33.8,6.21 19.77,0 36.77,-3.57 50.93,-10.66l55.99 114.21c-15.85,9.51 -34.94,17.07 -57.34,22.74 -22.4,5.67 -43.78,8.5 -64.22,8.5 -51.27,0 -92.09,-14.78 -122.44,-44.32 -30.36,-29.61 -45.54,-66.04 -45.54,-109.22 0,-45.74 15.79,-83.45 47.43,-113.13 31.57,-29.75 71.78,-44.59 120.56,-44.59 21.05,0 42.83,2.83 65.3,8.57 22.46,5.74 41.22,13.49 56.26,23.28z"/>
    <path class="fil1" d="M338.43 309.21c-8.43,7.38 -21.25,6.52 -28.63,-1.91 -7.38,-8.43 -6.52,-21.25 1.91,-28.63l238.52 -208.9c6.96,-6.09 16.9,-6.57 24.31,-1.81l228 131.08c9.7,5.57 13.05,17.97 7.47,27.67 -5.57,9.7 -17.96,13.05 -27.67,7.48l-216.28 -124.35 -227.63 199.36z"/>
    <path class="fil2" d="M340.35 708.66l217.36 0c0,46.67 -97.31,84.5 -217.36,84.5 -120.04,0 -217.36,-37.83 -217.36,-84.5l217.36 0z"/>
    <path class="fil2" d="M800.04 618.83l217.36 0c0,46.67 -97.31,84.5 -217.36,84.5 -120.05,0 -217.36,-37.83 -217.36,-84.5l217.36 0z"/>
   </g>
   <path class="fil1" d="M158.95 1085.89c-7.41,0 -13.86,-1.75 -19.27,-5.2 -5.49,-3.41 -9.61,-8.16 -12.44,-14.15 -2.83,-6 -4.25,-12.78 -4.25,-20.35l0 -145.84 26.97 0 0 145.84c0,3.91 0.75,7.12 2.25,9.66 1.5,2.54 3.74,3.83 6.74,3.83 3.08,0 5.37,-1.29 6.83,-3.83 1.46,-2.54 2.17,-5.74 2.17,-9.66l0 -145.84 26.97 0 0 145.84c0,7.49 -1.46,14.24 -4.37,20.27 -2.91,6.04 -7.12,10.82 -12.53,14.24 -5.45,3.45 -11.82,5.2 -19.06,5.2z"/>
   <polygon id="_1" class="fil1" points="214.89,1083.89 214.89,900.35 240.11,900.35 265.09,995.99 267.33,1004.48 268.83,1004.48 268.83,900.35 293.56,900.35 293.56,1083.89 270.83,1083.89 243.36,988.25 241.11,979.76 239.61,979.76 239.61,1083.89 "/>
   <polygon id="_2" class="fil1" points="313.53,1083.89 313.53,900.35 340.5,900.35 340.5,1083.89 "/>
   <polygon id="_3" class="fil1" points="382.21,1083.89 354.24,900.35 380.46,900.35 393.94,1008.73 394.94,1026.46 396.44,1026.46 397.44,1008.73 410.93,900.35 437.15,900.35 409.18,1083.89 "/>
   <polygon id="_4" class="fil1" points="450.88,1083.89 450.88,900.35 512.56,900.35 512.56,928.07 477.85,928.07 477.85,977.51 502.83,977.51 502.83,1004.48 477.85,1004.48 477.85,1056.17 512.56,1056.17 512.56,1083.89 "/>
   <path id="_5" class="fil1" d="M532.54 1083.89l0 -183.55 26.97 0c15.98,0 27.84,4.41 35.58,13.28 7.74,8.91 11.61,22.1 11.61,39.67 0,9.91 -1.75,18.69 -5.24,26.35 -3.5,7.66 -7.95,13.32 -13.36,16.98l18.35 87.28 -26.97 0 -15.23 -77.41 -4.74 0 0 77.41 -26.97 0zm26.97 -102.39c7.16,0 12.28,-2.33 15.36,-6.95 3.08,-4.62 4.62,-11.36 4.62,-20.27 0,-9.16 -1.5,-15.98 -4.54,-20.48 -3.04,-4.5 -8.2,-6.74 -15.44,-6.74l0 54.44z"/>
   <path id="_6" class="fil1" d="M654.16 1085.89c-9.57,0 -17.15,-2.12 -22.72,-6.32 -5.58,-4.17 -9.53,-10.2 -11.78,-17.98 -2.29,-7.74 -3.45,-17.48 -3.45,-29.14l26.47 -2.5c0,9.49 0.83,17.07 2.46,22.72 1.58,5.66 4.62,8.49 9.03,8.49 3.75,0 6.54,-1.75 8.32,-5.24 1.79,-3.5 2.67,-8.07 2.67,-13.74 0,-4.91 -1.25,-10.15 -3.79,-15.69 -2.54,-5.5 -5.95,-11.11 -10.2,-16.78 -7.66,-10.15 -13.69,-18.73 -18.11,-25.68 -4.41,-6.95 -7.91,-13.94 -10.49,-20.98 -2.58,-6.99 -3.87,-14.28 -3.87,-21.77 0,-8.24 1.41,-15.61 4.2,-22.1 2.79,-6.49 6.83,-11.61 12.15,-15.31 5.33,-3.7 11.61,-5.54 18.85,-5.54 8.91,0 16.15,2 21.72,5.99 5.58,4 9.61,9.61 12.2,16.85 2.5,7.24 3.79,15.86 3.79,25.85l-26.47 2.5c0,-17.65 -3.58,-26.47 -10.74,-26.47 -3.33,0 -5.7,1.42 -7.12,4.24 -1.42,2.83 -2.12,7.08 -2.12,12.74 0,4.5 0.79,8.91 2.45,13.15 1.58,4.29 3.79,8.66 6.62,13.07 2.79,4.41 6.66,9.99 11.65,16.73 6.08,8.16 10.87,15.03 14.32,20.6 3.41,5.58 6.2,11.36 8.28,17.27 2.08,5.95 3.12,12.24 3.12,18.81 0,13.98 -3.08,25.18 -9.24,33.59 -6.16,8.41 -15.57,12.61 -28.22,12.61z"/>
   <polygon id="_7" class="fil1" points="706.1,1083.89 706.1,900.35 733.07,900.35 733.07,1083.89 "/>
   <path id="_8" class="fil1" d="M753.05 1083.89l0 -183.55 27.47 0c11.99,0 21.31,2.67 27.97,7.99 6.66,5.33 11.44,14.57 14.44,27.72 2.91,13.15 4.41,31.88 4.41,56.19 0,24.39 -1.5,43.12 -4.41,56.23 -3,13.11 -7.78,22.31 -14.44,27.55 -6.66,5.24 -15.98,7.87 -27.97,7.87l-27.47 0zm26.97 -26.97c6.33,0 10.9,-2.5 13.73,-7.49 2.83,-5 4.58,-11.7 5.24,-20.06 0.67,-8.32 1,-20.85 1,-37.5 0,-16.56 -0.33,-29.05 -1,-37.42 -0.67,-8.32 -2.41,-14.94 -5.24,-19.85 -2.83,-4.83 -7.41,-7.28 -13.73,-7.28l0 129.61z"/>
   <path id="_9" class="fil1" d="M840.33 1083.89l27.72 -183.55 32.96 0 27.72 183.55 -26.22 0 -5 -37.46 -25.97 0 -5 37.46 -26.22 0zm34.96 -65.93l18.48 0 -7.74 -61.68 -0.75 -9.74 -1.5 0 -0.75 9.74 -7.74 61.68z"/>
   <path id="_10" class="fil1" d="M943.09 1083.89l0 -183.55 27.47 0c11.99,0 21.31,2.67 27.97,7.99 6.66,5.33 11.44,14.57 14.44,27.72 2.91,13.15 4.41,31.88 4.41,56.19 0,24.39 -1.5,43.12 -4.41,56.23 -3,13.11 -7.78,22.31 -14.44,27.55 -6.66,5.24 -15.98,7.87 -27.97,7.87l-27.47 0zm26.97 -26.97c6.33,0 10.9,-2.5 13.73,-7.49 2.83,-5 4.58,-11.7 5.24,-20.06 0.67,-8.32 1,-20.85 1,-37.5 0,-16.56 -0.33,-29.05 -1,-37.42 -0.67,-8.32 -2.41,-14.94 -5.24,-19.85 -2.83,-4.83 -7.41,-7.28 -13.73,-7.28l0 129.61z"/>
  </g>
 </g>
</svg>
