<?xml version="1.0" encoding="UTF-8"?>
<!DOCTYPE svg PUBLIC "-//W3C//DTD SVG 1.1//EN" "http://www.w3.org/Graphics/SVG/1.1/DTD/svg11.dtd">
<!-- Creator: CorelDRAW -->
<svg xmlns="http://www.w3.org/2000/svg" xml:space="preserve" width="1.13878in" height="1.13878in" version="1.1" style="shape-rendering:geometricPrecision; text-rendering:geometricPrecision; image-rendering:optimizeQuality; fill-rule:evenodd; clip-rule:evenodd"
viewBox="0 0 1138.78 1138.78"
 xmlns:xlink="http://www.w3.org/1999/xlink"
 xmlns:xodm="http://www.corel.com/coreldraw/odm/2003">
 <defs>
  <style type="text/css">
   <![CDATA[
    .fil0 {fill:none}
    .fil2 {fill:#FEFEFE}
    .fil1 {fill:#FEFEFE;fill-rule:nonzero}
   ]]>
  </style>
 </defs>
 <g id="Layer_x0020_1">
  <metadata id="CorelCorpID_0Corel-Layer"/>
  <g id="_2202476076432">
   <rect class="fil0" width="1138.78" height="1138.78"/>
   <path class="fil1" d="M456.32 736.32l50.59 65.24 -100.79 0 -8.91 -11.67c-22.39,11.06 -45.87,16.59 -70.5,16.59 -43.11,0 -79.67,-15.11 -109.62,-45.33 -29.95,-30.22 -44.93,-67.12 -44.93,-110.57 0,-43.37 14.98,-80.07 44.93,-110.23 29.95,-30.09 66.52,-45.13 109.62,-45.13 43.18,0 79.81,15.04 109.76,45.13 29.95,30.15 44.93,66.85 44.93,110.23 0,31.51 -8.37,60.04 -25.09,85.74zm-129.59 -125.48c-8.57,0 -15.72,2.97 -21.39,8.97 -5.67,6 -8.5,13.56 -8.5,22.67 0,9.04 2.83,16.6 8.5,22.6 5.67,6 12.82,8.97 21.39,8.97 8.63,0 15.85,-2.97 21.52,-8.97 5.67,-6 8.5,-13.56 8.5,-22.6 0,-9.11 -2.83,-16.66 -8.5,-22.67 -5.67,-6 -12.89,-8.97 -21.52,-8.97z"/>
   <path class="fil1" d="M931.39 445.6l-55.99 106.52c-16.33,-5.67 -34.34,-8.5 -54.1,-8.5 -28.33,0 -42.5,7.69 -42.5,23.14 0,7.35 3.91,13.09 11.87,17.27 7.89,4.12 19.16,6.21 33.8,6.21 19.77,0 36.77,-3.57 50.93,-10.66l55.99 114.21c-15.85,9.51 -34.94,17.07 -57.34,22.74 -22.4,5.67 -43.78,8.5 -64.22,8.5 -51.27,0 -92.09,-14.78 -122.44,-44.32 -30.36,-29.61 -45.54,-66.04 -45.54,-109.22 0,-45.74 15.79,-83.45 47.43,-113.13 31.57,-29.75 71.78,-44.59 120.56,-44.59 21.05,0 42.83,2.83 65.3,8.57 22.46,5.74 41.22,13.49 56.26,23.28z"/>
   <path class="fil1" d="M337.63 449.64c-8.43,7.38 -21.25,6.52 -28.63,-1.91 -7.38,-8.43 -6.52,-21.25 1.91,-28.63l238.52 -208.9c6.96,-6.09 16.9,-6.57 24.31,-1.81l228 131.08c9.7,5.57 13.05,17.97 7.47,27.67 -5.57,9.7 -17.96,13.05 -27.67,7.48l-216.28 -124.35 -227.63 199.36z"/>
   <path class="fil2" d="M339.55 849.09l217.36 0c0,46.67 -97.31,84.5 -217.36,84.5 -120.04,0 -217.36,-37.83 -217.36,-84.5l217.36 0z"/>
   <path class="fil2" d="M799.23 759.26l217.36 0c0,46.67 -97.31,84.5 -217.36,84.5 -120.05,0 -217.36,-37.83 -217.36,-84.5l217.36 0z"/>
  </g>
 </g>
</svg>
